<?xml version="1.0" encoding="utf-8"?>
<svg width="76px" height="76px" viewBox="0 0 76 76" version="1.1" xmlns:xlink="http://www.w3.org/1999/xlink" xmlns="http://www.w3.org/2000/svg">
  <defs>
    <path d="M76 0L76 0L76 76L0 76L0 0L76 0Z" id="path_1" />
    <clipPath id="clip_1">
      <use xlink:href="#path_1" clip-rule="evenodd" fill-rule="evenodd" />
    </clipPath>
  </defs>
  <g id="icone">
    <path d="M76 0L76 0L76 76L0 76L0 0L76 0Z" id="icone" fill="none" stroke="none" />
    <g id="BOLAS" transform="translate(0 1)" clip-path="url(#clip_1)">
      <g id="BOLA-EXTERNA">
        <path d="M58.879 6.16229C61.085 7.69257 62.9008 9.61792 64.3292 11.8475C69.4456 17.2057 72.7607 23.8173 74.0948 30.7649C74.2697 31.6731 74.4088 32.5858 74.5162 33.5008C74.8734 35.0334 75.0385 36.6067 74.9924 38.2075L74.9888 38.33C74.9488 39.4789 74.7999 40.6073 74.5516 41.7084C73.9302 47.4482 71.9373 53.0995 68.4783 58.167L68.3268 58.387C64.5042 63.9018 59.4096 68.0227 53.6882 70.6404C52.7424 71.224 51.744 71.7212 50.6915 72.1276L50.6888 72.1321L50.3893 72.241C48.7516 72.8405 47.0679 73.1902 45.3613 73.3129C45.0706 73.3696 44.7788 73.4218 44.4871 73.4716C37.5141 74.6546 30.1622 73.8668 23.3503 70.9515C20.7642 70.3952 18.3251 69.3668 16.1202 67.8387C13.9152 66.3085 12.0975 64.3832 10.6709 62.1537C5.55433 56.7954 2.23945 50.1838 0.903328 43.234C0.730293 42.3281 0.589302 41.4154 0.483772 40.498C0.126594 38.9678 -0.0393601 37.3943 0.0078811 35.7937L0.0103835 35.6711C0.0503005 34.5222 0.20002 33.3938 0.448433 32.2927C1.07868 26.469 3.1197 20.7384 6.67329 15.6142L6.71656 15.5506C10.5352 10.0698 15.6121 5.96936 21.311 3.35834C22.257 2.77704 23.2562 2.27985 24.3078 1.87347L24.3106 1.8689L24.611 1.75995C26.2486 1.16052 27.9313 0.808593 29.6389 0.688293C29.929 0.631469 30.2205 0.579284 30.5123 0.529357C37.4865 -0.655824 44.838 0.134276 51.6488 3.04956C54.2349 3.60577 56.6742 4.63434 58.879 6.16229L58.879 6.16229ZM38.5626 2.04358C39.4402 2.53162 40.3137 3.09924 41.1798 3.7464C42.0928 3.45227 43.0026 3.22375 43.9052 3.06805C42.1338 2.52124 40.3473 2.17859 38.5626 2.04358L38.5626 2.04358ZM38.0641 3.98944C35.3301 2.96777 32.5638 2.50457 29.8746 2.67938C27.2547 3.19934 24.7012 4.01898 22.2659 5.12243C21.163 5.81262 20.1417 6.63226 19.2045 7.56768C21.4385 7.05456 23.8254 6.80706 26.3114 6.82977C27.8196 6.84338 29.3648 6.95465 30.935 7.16351C32.8811 6.0487 34.86 5.12695 36.8416 4.40716C37.2487 4.25958 37.6566 4.12109 38.0641 3.98944L38.0641 3.98944ZM54.1154 14.0929C58.0207 15.496 61.5337 17.3441 64.5126 19.5306C64.8923 19.8098 65.2626 20.0936 65.6243 20.382C65.0536 17.7006 64.0896 15.2349 62.7369 13.0803C61.1089 11.3956 59.2916 9.84259 57.2912 8.45533C55.2911 7.06812 53.2004 5.9079 51.053 4.97474C48.8001 4.50928 46.4205 4.43439 43.9824 4.72272C44.5675 5.09052 45.1473 5.47877 45.7219 5.89203C48.7256 8.0467 51.5717 10.8143 54.1154 14.0929L54.1154 14.0929ZM45.8425 11.9156C47.4695 12.2017 49.0544 12.5581 50.593 12.9803C48.6982 10.8621 46.6696 9.02753 44.5596 7.51318C43.3687 6.65949 42.1525 5.90796 40.9218 5.2677C39.7923 5.53564 38.6556 5.87622 37.52 6.28943C36.3922 6.69812 35.2642 7.17719 34.1446 7.7243C38.0012 8.54846 41.9575 9.94708 45.8425 11.9156L45.8425 11.9156ZM13.8547 16.4564C16.6634 14.9353 19.8118 13.6956 23.2075 12.7942C24.8078 11.3525 26.4676 10.0515 28.1645 8.89808C27.535 8.85725 26.9128 8.83455 26.2964 8.82997C22.906 8.80049 19.725 9.29994 16.9099 10.3308C15.6616 12.1312 14.6378 14.1928 13.8547 16.4564L13.8547 16.4564ZM27.4561 11.8679C30.9317 11.2685 34.6066 11.0096 38.3978 11.1436L38.4414 11.1459C38.6302 11.1527 38.8192 11.1595 39.0078 11.1686C36.4224 10.2626 33.8486 9.62238 31.3403 9.24097C30.0253 10.0242 28.7277 10.9029 27.4561 11.8679L27.4561 11.8679ZM5.78223 22.5729C6.25568 20.4841 7.09253 18.5248 8.31982 16.7561L8.3197 16.7562L8.36676 16.6881C9.76123 14.6969 11.5584 13.0872 13.6605 11.8521C12.6816 13.7252 11.89 15.7822 11.296 17.98C11.1151 18.098 10.9351 18.2184 10.7587 18.3387L10.679 18.3931C8.84027 19.6555 7.19623 21.0563 5.78223 22.5729L5.78223 22.5729ZM58.0695 50.9855L57.9366 51.1785C55.7869 54.2797 53.377 57.0314 50.806 59.3995C46.4535 60.503 41.68 61.0343 36.6876 60.8595L36.6379 60.8572C34.2956 60.7731 32.0124 60.5393 29.8083 60.167C27.8126 59.1408 25.8338 57.9578 23.9 56.616C21.814 55.1675 19.8829 53.61 18.1159 51.9684C16.9764 49.8455 15.9587 47.5841 15.0881 45.2025L15.0685 45.1479C13.4202 40.6276 12.4558 36.1002 12.1207 31.7682C13.4017 28.7372 15.049 25.7266 17.0625 22.8228L17.1253 22.732C19.2595 19.6691 21.647 16.9469 24.1934 14.6016C28.5467 13.4981 33.3201 12.9668 38.3117 13.1416L38.3622 13.1439C40.7036 13.2256 42.9878 13.4618 45.1916 13.8342C47.1874 14.8604 49.1646 16.0433 51.0992 17.3851C53.1852 18.8337 55.1172 20.3912 56.8841 22.0327C58.0226 24.1556 59.0404 26.4171 59.9111 28.7986L59.9199 28.8213C61.5742 33.3509 62.5425 37.8918 62.8788 42.2329C61.6257 45.1959 60.0235 48.1406 58.0695 50.9855L58.0695 50.9855ZM52.8936 15.9058C52.5168 15.7332 52.1373 15.5664 51.7535 15.4028C51.9157 15.5513 52.0787 15.6998 52.241 15.8513C52.6852 16.2633 53.1234 16.6814 53.5549 17.1057C53.337 16.6996 53.1163 16.2997 52.8936 15.9058L52.8936 15.9058ZM11.9974 27.3363C12.0576 24.7434 12.3546 22.2528 12.876 19.9165L12.8759 19.9167L12.8989 19.8168C12.9424 19.6238 12.9876 19.4331 13.0346 19.2424C15.1617 17.921 17.5341 16.7812 20.1009 15.8525C18.4651 17.6121 16.9135 19.5284 15.4754 21.5945L15.416 21.6783C14.1341 23.5288 12.9948 25.4223 11.9974 27.3363L11.9974 27.3363ZM66.096 23.4243C65.2429 22.6297 64.3218 21.8668 63.3368 21.1448C61.2435 19.6077 58.8685 18.2454 56.2688 17.1011C57.0456 18.2772 57.7849 19.5078 58.4816 20.7861C61.5034 23.6263 64.055 26.7073 66.0869 29.8837C66.2059 28.6418 66.2601 27.418 66.2476 26.2192C66.2386 25.2701 66.1873 24.3393 66.096 23.4243L66.096 23.4243ZM68.0023 22.4867C68.8976 23.3654 69.7168 24.2803 70.4554 25.2316C69.6343 23.0679 68.5981 20.9745 67.3541 18.9857C67.6378 20.1163 67.854 21.2879 68.0023 22.4867L68.0023 22.4867ZM10.6408 20.886C8.51392 22.5003 6.71571 24.319 5.32038 26.2988C5.23066 29.5206 5.87983 32.9421 7.19715 36.375C7.41804 36.9517 7.65833 37.5284 7.91627 38.1028C8.45435 35.8892 9.18067 33.655 10.0938 31.4323C9.84644 27.7382 10.0389 24.1827 10.6408 20.886L10.6408 20.886ZM71.5414 44.4373C71.9841 43.4451 72.3307 42.4235 72.5743 41.3745C72.8377 38.8725 72.8253 36.3546 72.5461 33.8616C71.8454 30.9418 70.3597 28.1718 68.2363 25.6653C68.2407 25.8424 68.2442 26.0172 68.246 26.1966C68.2674 28.3035 68.0962 30.4809 67.7344 32.6946C68.4828 34.0931 69.1291 35.5009 69.6688 36.9108C70.6399 39.4401 71.272 41.9716 71.5414 44.4373L71.5414 44.4373ZM61.2117 26.6006C61.4033 27.0797 61.5893 27.5656 61.7684 28.056L61.7899 28.1105C63.0131 31.4548 63.8759 34.8106 64.399 38.0959C64.9291 36.4 65.3459 34.7108 65.6483 33.0442C64.4264 30.8487 62.9406 28.6849 61.2117 26.6006L61.2117 26.6006ZM3.45764 29.5613C3.01587 30.5558 2.66931 31.5775 2.42468 32.6265C2.16132 35.1285 2.17456 37.6464 2.45398 40.1393C3.15344 43.0592 4.63946 45.8292 6.76282 48.3356C6.75854 48.1586 6.755 47.9838 6.75311 47.8044C6.73267 45.6974 6.90289 43.5201 7.26367 41.3064C6.51727 39.9078 5.87109 38.5002 5.33111 37.0901C4.35919 34.5609 3.72699 32.0294 3.45764 29.5613L3.45764 29.5613ZM64.3582 53.1149C66.486 51.5007 68.2833 49.6821 69.6785 47.7023C69.7683 44.4805 69.1204 41.0589 67.8019 37.6237C67.5809 37.0493 67.3407 36.4726 67.0837 35.8981C66.5446 38.1118 65.8185 40.346 64.906 42.5688C65.1526 46.2628 64.9609 49.8183 64.3582 53.1149L64.3582 53.1149ZM13.7872 47.4002C13.5959 46.9189 13.4095 46.4352 13.2305 45.9449L13.2093 45.8904C11.9867 42.546 11.123 39.1903 10.6008 35.905C10.0699 37.601 9.65411 39.2903 9.35156 40.9567C10.5733 43.1523 12.0574 45.316 13.7872 47.4002L13.7872 47.4002ZM8.90305 50.5743C9.75694 51.3712 10.678 52.1341 11.663 52.856C13.7555 54.3931 16.1308 55.7554 18.7302 56.8997C17.9535 55.7236 17.2141 54.4931 16.5173 53.2148C13.4965 50.3745 10.9439 47.2935 8.91282 44.1171C8.79325 45.3568 8.73899 46.5828 8.75047 47.7816C8.76023 48.7308 8.81174 49.6616 8.90305 50.5743L8.90305 50.5743ZM62.1808 53.8215L62.123 54.0826C62.073 54.3115 62.0197 54.5363 61.9658 54.7587C59.8387 56.0801 57.4662 57.2199 54.8987 58.1486C56.5574 56.3641 58.1287 54.4182 59.583 52.3206L59.7197 52.123C60.9468 50.3362 62.0406 48.5108 63.0018 46.6648C62.9443 49.16 62.6667 51.5622 62.1808 53.8215L62.1808 53.8215ZM6.99683 51.5142C6.10229 50.6356 5.28229 49.7183 4.5437 48.7692C5.36469 50.9307 6.401 53.024 7.64593 55.0152C7.36224 53.8822 7.14593 52.713 6.99683 51.5142L6.99683 51.5142ZM66.8286 57.0272L66.6805 57.2451C65.2791 59.2679 63.4658 60.9003 61.3389 62.149C62.3178 60.276 63.1104 58.2189 63.7045 56.0212C63.9119 55.8849 64.1176 55.7464 64.3201 55.6081L64.5444 55.4515C66.2938 54.2325 67.8615 52.8838 69.2176 51.4283C68.7629 53.4309 67.9738 55.3175 66.8286 57.0272L66.8286 57.0272ZM20.8829 59.908C16.9783 58.5049 13.4655 56.6568 10.4865 54.4703C10.108 54.191 9.73645 53.9073 9.37476 53.6166C9.94672 56.298 10.9095 58.766 12.2634 60.9207C13.8911 62.6053 15.7076 64.1583 17.7089 65.5455C19.709 66.9327 21.7997 68.093 23.947 69.0261C26.1991 69.4915 28.5786 69.5664 31.0168 69.2781C30.4324 68.9103 29.8519 68.522 29.2775 68.1088C26.2735 65.9541 23.4275 63.1842 20.8829 59.908L20.8829 59.908ZM22.1053 58.524C22.4822 58.6971 22.8627 58.864 23.2455 59.0248C23.0825 58.8792 22.9202 58.7304 22.7589 58.5786C22.3138 58.1658 21.8757 57.7469 21.444 57.322C21.6622 57.7257 21.8828 58.1294 22.1053 58.524L22.1053 58.524ZM61.1453 57.5445C58.3356 59.0657 55.1874 60.3054 51.7916 61.2067C50.1912 62.6484 48.5323 63.9494 46.8354 65.1028C47.464 65.1436 48.0866 65.1664 48.7026 65.171C52.094 65.2004 55.2742 64.7009 58.0901 63.6702C59.3376 61.8697 60.3607 59.8082 61.1453 57.5445L61.1453 57.5445ZM29.1574 62.083C27.5297 61.7992 25.9445 61.4427 24.4062 61.0204C26.3008 63.1387 28.3303 64.9733 30.4404 66.4877C31.6312 67.3413 32.8466 68.0928 34.0773 68.7332C35.2076 68.4652 36.3433 68.1246 37.48 67.7114C38.6069 67.3027 39.7346 66.8237 40.8544 66.2765C36.9977 65.4501 33.0416 64.0537 29.1574 62.083L29.1574 62.083ZM47.543 62.133C44.0677 62.7324 40.3934 62.9912 36.6014 62.8572L36.5544 62.855C36.3666 62.8482 36.1796 62.8414 35.9922 62.8323C38.5777 63.7358 41.1507 64.3784 43.658 64.7599C44.9739 63.9765 46.2717 63.098 47.543 62.133L47.543 62.133ZM36.9348 70.0092C39.6691 71.0331 42.4352 71.494 45.1252 71.3215C47.7433 70.8015 50.2975 69.9819 52.734 68.8785C53.8361 68.186 54.8574 67.3686 55.7947 66.4309C53.5602 66.9464 51.1745 67.1938 48.6884 67.1711C47.1802 67.1575 45.6349 67.0461 44.064 66.8373C42.1179 67.9498 40.139 68.8739 38.1573 69.5937C37.7505 69.739 37.3425 69.8797 36.9348 70.0092L36.9348 70.0092ZM36.4366 72.543C35.5587 72.055 34.6865 71.4874 33.8192 70.8401C32.9061 71.1343 31.9964 71.3628 31.0947 71.5151C32.8662 72.0654 34.6517 72.408 36.4366 72.543L36.4366 72.543Z" id="Vector" fill="currentColor" fill-rule="evenodd" stroke="none" />
      </g>
      <g id="BOLA-INTERNA" transform="translate(17.009277 16.332825)">
        <path d="M11.5737 39.9152L11.5698 39.9061C11.43 39.7745 11.27 39.6246 11.0917 39.4521C10.6583 39.0206 10.2255 38.5802 9.8755 38.2123L9.8714 38.2123C10.4298 38.8253 10.9972 39.393 11.5737 39.9152L11.5737 39.9152ZM9.25885 20.8457C9.47327 20.4665 9.69673 20.294 9.93614 20.1963C10.0398 20.1554 10.1499 20.1146 10.2579 20.1055C10.7829 19.9738 11.3885 19.9102 12.1482 18.8136C12.9551 17.7147 12.9417 16.9201 12.987 16.2003C12.9932 16.0414 13.0108 15.8871 13.0454 15.7258C13.1049 15.3762 13.2388 15.0175 13.556 14.627L13.556 14.627C13.5738 14.6043 13.5907 14.5816 13.6093 14.5588C14.4206 13.5985 15.7276 13.3737 16.5732 14.0821C17.4698 14.8472 17.5103 16.3229 16.6355 17.3492C16.6158 17.3742 16.5945 17.3992 16.5795 17.4128L16.5805 17.4128C16.2318 17.8328 15.8834 18.0145 15.5253 18.1212C15.3745 18.1666 15.2201 18.2029 15.0677 18.2165C14.3709 18.3414 13.6368 18.4141 12.8071 19.5289C12.0277 20.6232 12.0826 21.4588 12.0959 22.2329C12.1082 22.3987 12.1067 22.5781 12.0923 22.7416C12.0719 23.1252 11.9904 23.5112 11.7341 23.8926C11.7226 23.9221 11.7094 23.9358 11.697 23.9653C11.1038 24.8939 10.0798 24.9053 9.41564 24.047C8.81908 23.2093 8.73745 21.8424 9.22586 20.907C9.23478 20.8911 9.24625 20.8775 9.25885 20.8457L9.25885 20.8457ZM9.0104 29.8662C9.16817 29.7436 9.40676 29.739 9.6816 29.7776C9.80029 29.789 9.91739 29.8049 10.0469 29.8345C10.6462 29.9366 11.3342 30.0706 11.9672 29.5801C12.6802 29.0103 12.5081 28.4154 12.4017 27.8387C12.3724 27.7115 12.3592 27.5844 12.3635 27.4595C12.3494 27.1553 12.4275 26.8647 12.7245 26.5718C12.7448 26.5581 12.7528 26.5399 12.7741 26.5264C13.5304 25.7567 15.067 25.7953 16.137 26.6172C17.1921 27.4028 17.3569 28.597 16.5527 29.2736C16.5369 29.2872 16.5201 29.3009 16.5032 29.3145L16.5032 29.3145C16.1964 29.5711 15.8532 29.6573 15.4969 29.6891C15.3479 29.705 15.2007 29.7095 15.0394 29.7005C14.331 29.6891 13.5535 29.6165 12.8388 30.1659C12.1643 30.6177 12.3619 31.0491 12.4992 31.4056C12.5348 31.4782 12.5533 31.5463 12.5533 31.6054C12.588 31.7529 12.5703 31.8755 12.3672 31.9482C12.3477 31.9482 12.3449 31.955 12.3254 31.9528C11.8778 32.0731 10.8457 31.7484 9.96447 31.258C9.08944 30.7176 8.62297 30.1137 8.98126 29.882C8.98475 29.873 9.00596 29.8753 9.0104 29.8662L9.0104 29.8662ZM6.13439 8.56042C6.43945 8.24254 6.7072 8.06317 6.96775 7.93149C7.08033 7.87247 7.19749 7.82026 7.31884 7.77484C7.8686 7.5637 8.47421 7.38889 9.38024 6.58284C10.3068 5.82456 10.3909 5.43175 10.5319 5.08666C10.5575 5.01625 10.6012 4.94361 10.6473 4.87326C10.7518 4.7166 10.9166 4.55313 11.2491 4.34876L11.2491 4.34876C11.2653 4.33968 11.2802 4.32832 11.2961 4.31924C12.1128 3.86289 13.2318 3.60631 13.8807 3.75163C14.5891 3.97186 14.5295 4.62575 13.6963 5.19791C13.6662 5.21603 13.6519 5.22739 13.6378 5.23878C13.2955 5.48851 12.9667 5.61794 12.6235 5.71101C12.4771 5.75642 12.3434 5.78596 12.19 5.81548C11.5472 5.95848 10.853 6.09698 9.91755 6.88031C8.99187 7.7181 8.93 8.26299 8.81646 8.81697C8.79599 8.94188 8.77289 9.06444 8.73475 9.18934C8.64626 9.4913 8.50441 9.79782 8.15837 10.1657C8.14873 10.177 8.12831 10.1997 8.10719 10.2224C7.29327 11.1306 6.13618 11.4189 5.57857 10.8921C5.10231 10.4267 5.34885 9.42321 6.08459 8.61262C6.09713 8.599 6.10872 8.58539 6.13439 8.56042L6.13439 8.56042ZM1.5391 13.0989L1.54524 13.0967C1.64376 12.8923 1.79901 12.5904 2.06325 12.0886C2.57728 11.21 2.80966 10.7763 3.03667 10.4062C3.0783 10.3449 3.1208 10.2836 3.16334 10.2201L3.16334 10.2178C3.50739 9.72058 3.88063 9.23922 4.28047 8.77151C4.60686 8.41054 4.86566 8.19027 4.94551 8.24026C5.14318 8.37649 4.79823 9.17793 4.12454 9.99075C4.11385 10.0044 4.10227 10.0203 4.09079 10.0339L4.09079 10.0339C3.83266 10.3654 3.62091 10.572 3.43999 10.715C3.35668 10.7899 3.28142 10.849 3.21485 10.8944C2.90186 11.1532 2.61804 11.3916 2.07731 12.2907C1.59221 13.2034 1.4238 13.7302 1.26607 14.2547C1.2377 14.3659 1.20751 14.4749 1.16849 14.602C1.0931 14.8745 1.00288 15.1628 0.861835 15.5125C0.854595 15.5306 0.848429 15.5465 0.841419 15.5647C0.603722 16.2231 0.433544 16.5501 0.420229 16.466L0.417664 16.466C0.68088 15.315 1.05319 14.1865 1.5391 13.099L1.5391 13.0989ZM2.77864 19.2043C2.99309 18.825 3.21752 18.6524 3.45589 18.5549C3.55958 18.5117 3.66874 18.4731 3.77778 18.464C4.30272 18.3323 4.90829 18.2665 5.66788 17.1722C6.47484 16.0733 6.46077 15.2763 6.50685 14.5566C6.51205 14.4 6.52975 14.2455 6.56545 14.0844C6.62462 13.7347 6.75767 13.3737 7.0752 12.9832L7.0752 12.9855C7.09286 12.9605 7.11058 12.9378 7.12915 12.9173C7.94031 11.9547 9.2473 11.7322 10.0933 12.4383C10.9886 13.2034 11.0301 14.6815 10.1551 15.7077C10.1357 15.7304 10.1143 15.7554 10.0994 15.7713L10.0994 15.7713C9.75186 16.189 9.40409 16.373 9.04416 16.4774C8.89438 16.5251 8.73926 16.5614 8.58681 16.5751C7.89066 16.6999 7.15759 16.7703 6.32692 17.8874C5.54661 18.9817 5.60238 19.8173 5.61573 20.5915C5.62827 20.7572 5.62642 20.9343 5.61214 21.1001C5.59164 21.4815 5.51022 21.8675 5.25397 22.2512C5.24165 22.2784 5.22923 22.2943 5.21674 22.3216C4.62364 23.2502 3.59955 23.2638 2.93543 22.4033C2.33873 21.5678 2.25819 20.1987 2.74498 19.2655C2.75455 19.2497 2.76703 19.2338 2.77864 19.2043L2.77864 19.2043ZM4.01442 15.3648C4.68222 14.4 4.78229 13.1285 4.27251 12.5677C3.83626 12.0727 3.05534 12.4247 2.49216 13.3033C1.97173 14.1978 1.79532 15.3376 2.12431 15.912C2.53485 16.541 3.393 16.3162 4.01442 15.3648L4.01442 15.3648ZM18.3181 29.6278C18.623 29.2419 18.9716 29.1011 19.3414 29.033C19.5001 28.9944 19.6684 28.983 19.8341 28.9807C20.6152 28.933 21.4931 28.9512 22.446 27.841C23.4277 26.7035 23.3088 25.7772 23.2724 24.9258C23.252 24.7373 23.253 24.5534 23.2724 24.3695C23.3017 23.9426 23.4213 23.5226 23.7947 23.089C23.8142 23.064 23.8327 23.0413 23.8533 23.0163C24.7832 21.9424 26.4617 21.8788 27.6036 22.8801C28.7427 23.8859 28.9076 25.5683 27.9733 26.6422C27.9528 26.6649 27.9351 26.6853 27.9138 26.7081L27.9138 26.7081C27.5344 27.1394 27.1381 27.3165 26.7213 27.4029C26.544 27.4459 26.3579 27.471 26.1743 27.4777C25.3277 27.555 24.4055 27.564 23.4125 28.6947C22.4548 29.7981 22.5907 30.6723 22.6428 31.4555C22.6677 31.6258 22.673 31.7938 22.6617 31.9596C22.6535 32.3433 22.5515 32.7043 22.2228 33.0676L22.2236 33.0676C22.2023 33.0834 22.1908 33.1062 22.1696 33.1221C21.3786 33.9758 19.9051 33.9076 18.8385 32.9836C17.8004 32.0504 17.536 30.5883 18.2702 29.6869C18.2844 29.6642 18.2977 29.6392 18.3181 29.6279L18.3181 29.6278ZM20.9681 36.0667C21.3093 35.7579 21.6774 35.6262 22.0533 35.5536C22.2121 35.5172 22.3874 35.4923 22.5524 35.4809C23.3157 35.3901 24.1439 35.3356 25.129 34.4047C26.1137 33.4262 26.0848 32.6838 26.104 31.9799C26.0971 31.8255 26.1104 31.6665 26.1468 31.5054C26.1928 31.1375 26.3258 30.7652 26.6903 30.3657L26.6911 30.3657C26.7114 30.3407 26.7328 30.3157 26.7462 30.2997C27.6452 29.2826 29.1036 29.1282 29.9787 29.9184C30.789 30.6676 30.7466 32.0003 29.9113 32.9403C29.8919 32.9607 29.8713 32.9812 29.8519 33.0016L29.8519 33.0016C29.5096 33.3694 29.1745 33.551 28.827 33.6646C28.6842 33.7145 28.5352 33.7508 28.3792 33.7781C27.6771 33.9211 26.8808 34.021 25.9092 34.9723C24.9329 35.8783 24.9506 36.489 24.9063 37.0271C24.8984 37.1429 24.8878 37.2519 24.8443 37.3654C24.7804 37.6174 24.6421 37.8626 24.2981 38.1282C24.2849 38.1419 24.2715 38.1532 24.2422 38.1692C23.4035 38.7798 22.0292 38.8844 21.1259 38.4007C20.1924 37.8536 20.0673 36.8273 20.9026 36.1121C20.9283 36.0962 20.9413 36.0826 20.9681 36.0667L20.9681 36.0667ZM19.967 25.1754C20.8723 24.2423 20.7711 22.771 19.7125 21.8878C18.6291 20.9728 16.9915 21.0364 16.0837 22.0309C15.199 22.9936 15.3727 24.4625 16.4587 25.3185C17.5227 26.1358 19.0769 26.0722 19.967 25.1754L19.967 25.1754ZM28.124 39.5474C28.4475 39.3589 28.7179 39.2295 28.9936 39.1114C29.1133 39.057 29.2179 39.0138 29.3234 38.9707C29.8226 38.7482 30.3192 38.5165 31.1518 37.9104C31.9764 37.236 32.1802 36.9023 32.3858 36.5481C32.4187 36.4754 32.4666 36.3891 32.5287 36.2961C32.6411 36.094 32.8141 35.8533 33.1031 35.5536C33.1155 35.54 33.1402 35.515 33.1527 35.4992C33.8602 34.7204 34.6255 34.2685 34.7912 34.4752C34.8781 34.5705 34.5588 35.0268 34.1042 35.5445C33.8434 35.8283 33.5738 36.1008 33.2991 36.3641L33.2955 36.3664L33.2928 36.371L33.2892 36.3733L33.2858 36.3755L33.283 36.3801C33.2389 36.4209 33.1944 36.4618 33.1499 36.5027C33.0666 36.5776 32.9968 36.6412 32.9249 36.7025C32.5721 36.984 32.1863 37.2542 31.3778 37.899C30.8289 38.2963 30.5392 38.5075 30.3342 38.6415L30.3342 38.6459C29.3599 39.2432 28.336 39.7427 27.2764 40.1399L27.2746 40.1377C27.1176 40.1581 27.4102 39.9265 28.0743 39.5747C28.0911 39.5655 28.107 39.5564 28.124 39.5474L28.124 39.5474ZM0 22.1399C0 22.0446 0.00959015 21.8493 0.0296783 21.4429C0.138823 20.6006 0.135159 19.9671 0.158911 19.3723C0.163799 19.2564 0.172417 19.1225 0.183899 19.009C0.214588 18.7047 0.262407 18.4028 0.356346 18.0713C0.360985 18.0531 0.36692 18.0327 0.371492 18.0168C0.660906 17.1654 1.11676 16.9315 1.41666 17.5286C1.80471 18.1961 1.80007 19.5016 1.38606 20.3917C1.37849 20.4075 1.36984 20.4258 1.36205 20.4439L1.36205 20.4439C1.2166 20.7776 1.07291 20.9343 0.931187 21.0024C0.873526 21.0547 0.81613 21.0705 0.760513 21.0864C0.526794 21.1522 0.315132 21.1818 0.171448 22.0242C0.123621 22.8165 0.206984 23.4364 0.294022 23.9971C0.319057 24.1311 0.339174 24.2469 0.359266 24.3627C0.408989 24.6329 0.458874 24.903 0.499094 25.1347C0.503717 25.1551 0.502968 25.1551 0.50658 25.1733C0.515306 25.2119 0.528767 25.2687 0.538273 25.3072L0.538273 25.3094C0.26639 24.2605 0.0860806 23.2025 0 22.1399L0 22.1399ZM2.71213 26.91C3.02869 26.1767 2.7954 24.8257 2.19162 23.9653C1.65715 23.1411 1.06758 23.1434 0.869771 23.8949C0.742905 24.601 0.98058 25.7884 1.39112 26.583C1.87598 27.4186 2.46743 27.6003 2.71213 26.91L2.71213 26.91ZM2.78832 29.8185C2.84136 29.6232 2.95148 29.5733 3.09943 29.587C3.15891 29.5801 3.22795 29.5892 3.30413 29.6164C3.67209 29.705 4.12447 29.8457 4.47895 29.1124C4.92311 28.3269 4.74771 27.5594 4.64044 26.8556C4.60929 26.6966 4.59524 26.5469 4.59164 26.3969C4.5729 26.0383 4.61292 25.6818 4.82405 25.3435L4.82405 25.3435C4.83471 25.3253 4.84506 25.3072 4.85657 25.2868C5.41095 24.3831 6.60963 24.3876 7.52718 25.3503C8.48303 26.3062 8.72148 27.8228 8.07157 28.6901C8.06178 28.7128 8.04309 28.7241 8.03338 28.7469C7.78533 29.0806 7.50164 29.1851 7.20877 29.2237C7.08576 29.2463 6.95802 29.2509 6.82863 29.2373C6.2469 29.2078 5.63711 29.117 5.17055 29.9026C4.77426 30.5995 5.00038 31.2671 5.18125 31.8506C5.22735 31.9754 5.25843 32.0912 5.28592 32.207C5.36039 32.4772 5.38781 32.7156 5.28677 32.8882C5.29117 32.9085 5.28406 32.9155 5.27708 32.92C5.09524 33.3082 4.45068 32.9381 3.79014 32.123C3.18917 31.3102 2.73246 30.3248 2.78832 29.8617C2.78557 29.8413 2.79191 29.839 2.78832 29.8185L2.78832 29.8185ZM10.4895 37.4631C10.6463 37.3382 10.8848 37.3359 11.1597 37.3722C11.2783 37.3859 11.3955 37.3995 11.525 37.4313C12.1242 37.5312 12.8132 37.6674 13.4453 37.177C14.1581 36.6071 13.9862 36.0122 13.8798 35.4356C13.8504 35.3084 13.8382 35.1813 13.8417 35.0541C13.8275 34.7522 13.9062 34.4592 14.2024 34.1686L14.2024 34.1686C14.2238 34.155 14.2308 34.1368 14.2513 34.1233C15.0093 33.3535 16.5448 33.3899 17.6149 34.2141C18.6702 34.9996 18.834 36.1939 18.0317 36.8705C18.0149 36.8841 17.9981 36.8977 17.982 36.9114C17.6754 37.1679 17.3313 37.2542 16.9749 37.2837C16.8268 37.3019 16.6786 37.3064 16.5173 37.2974C15.809 37.286 15.0314 37.2133 14.3169 37.7628C13.6421 38.2146 13.8398 38.646 13.9773 39.0024C14.0137 39.0751 14.0314 39.1432 14.0322 39.2023C14.0658 39.3476 14.0482 39.4724 13.8462 39.5451C13.8257 39.5451 13.824 39.5496 13.8034 39.5496C13.3559 39.6677 12.3239 39.3453 11.4426 38.8549C10.5673 38.3145 10.1011 37.7106 10.4593 37.4768C10.4636 37.4699 10.4849 37.4722 10.4895 37.4631L10.4895 37.4631ZM10.9496 35.3447C11.524 34.7612 11.212 33.5669 10.2012 32.6996C9.19671 31.8005 7.96175 31.6393 7.47149 32.3C7.0352 32.888 7.4465 33.9983 8.35012 34.8134C9.27475 35.5967 10.422 35.8509 10.9496 35.3447L10.9496 35.3447ZM19.9362 40.6643C20.648 40.3669 20.5725 39.7765 19.6905 39.3543C18.7614 38.8662 17.4014 38.8139 16.7214 39.2295C16.0732 39.5655 16.3321 40.1331 17.2187 40.5054C18.0742 40.8119 19.2578 40.8869 19.9362 40.6643L19.9362 40.6643ZM18.7684 41.2411C19.022 41.2479 19.2748 41.257 19.5469 41.2661C19.663 41.2683 19.7986 41.2728 19.9158 41.2774C20.4972 41.282 21.1163 41.2752 21.8734 41.1253C22.6828 40.8801 22.6864 40.6804 22.7404 40.4533C22.7306 40.4011 22.7581 40.342 22.7846 40.2853C22.8326 40.1445 22.9693 39.9901 23.2989 39.8085C23.3149 39.7994 23.331 39.7881 23.3468 39.779C24.1696 39.2771 25.4542 39.0955 26.1591 39.3658C26.7869 39.5633 26.5946 40.0242 25.7938 40.4034C25.7761 40.4124 25.7593 40.4192 25.7416 40.426C25.4267 40.5578 25.1538 40.6372 24.8575 40.7076C24.7282 40.737 24.6165 40.7599 24.4855 40.7825C23.9026 40.8847 23.2785 40.9664 22.4817 41.1776C22.0659 41.2525 21.8761 41.2888 21.7804 41.3001C20.7306 41.3637 19.6711 41.3387 18.6125 41.2298L18.6125 41.2298C18.6515 41.2343 18.6903 41.2365 18.7294 41.2389C18.749 41.2389 18.7684 41.2411 18.7684 41.2411L18.7684 41.2411ZM5.30726 33.9394L5.30581 33.9337C4.9372 33.5807 4.49429 33.143 4.05844 32.7081C3.90293 32.5472 3.74701 32.3834 3.61511 32.2422L3.60498 32.2366C4.13882 32.8183 4.70537 33.3831 5.30726 33.9394L5.30726 33.9394ZM6.56169 35.6627C6.43668 35.531 6.25392 35.3334 6.09013 35.1404C6.02632 35.0655 5.96314 34.986 5.91708 34.9202C5.80178 34.7545 5.7389 34.6227 5.77252 34.5365L5.77349 34.5365C5.76273 34.5184 5.76635 34.5161 5.77084 34.5115C5.90034 34.2323 6.72131 34.5955 7.56623 35.3698C8.45365 36.1281 8.929 36.9137 8.6841 37.0908C8.68163 37.0953 8.67788 37.0998 8.65934 37.093C8.59458 37.1475 8.44028 37.0908 8.26215 36.9977C8.1913 36.9591 8.12122 36.9205 8.03693 36.866C7.81972 36.7229 7.59377 36.5595 7.44823 36.4505C7.32228 36.3461 7.19742 36.2393 7.07325 36.1304C6.89947 35.976 6.72916 35.8194 6.56169 35.6627" id="path42" fill="currentColor" fill-rule="evenodd" stroke="none" />
        <path d="M32.8139 31.1604C32.4689 31.5282 32.3271 31.8324 32.2395 32.1367C32.2004 32.2616 32.1666 32.3932 32.1579 32.509C32.0453 33.063 31.9699 33.617 31.0453 34.4547C30.1248 35.2313 29.43 35.3675 28.7719 35.5173C28.6354 35.54 28.4857 35.5763 28.3393 35.6195C28.0122 35.708 27.6834 35.8374 27.341 36.0895L27.341 36.0895C27.3109 36.1053 27.2966 36.1167 27.2825 36.128C26.4332 36.7048 26.3914 37.3564 27.0998 37.5789C27.7319 37.7311 28.8685 37.4676 29.6835 37.0113C29.6993 37.0022 29.7154 36.9931 29.7304 36.9817C30.0629 36.7773 30.2276 36.6139 30.3324 36.4573C30.3786 36.3869 30.4061 36.3211 30.4308 36.2529C30.5718 35.9055 30.6711 35.5036 31.5823 34.7567C32.5019 33.9394 33.1084 33.7645 33.6572 33.5557C33.7787 33.508 33.8823 33.4671 34.0084 33.399C34.2697 33.2674 34.5367 33.088 34.8424 32.7678C34.8674 32.7429 34.88 32.7292 34.8921 32.7179C35.6273 31.9051 35.8719 30.9038 35.3958 30.4338C34.8363 29.9071 33.6793 30.1954 32.8655 31.1036C32.845 31.1263 32.8238 31.149 32.8139 31.1604L32.8139 31.1604ZM10.4876 2.78671L10.4876 2.79351C10.2987 2.9184 10.022 3.11365 9.56357 3.44512C8.7686 4.07634 8.3729 4.36463 8.03974 4.64168C7.98293 4.69162 7.92785 4.74155 7.87194 4.79379L7.87035 4.79379C7.42784 5.20474 7.00215 5.64066 6.59623 6.10381C6.28591 6.47621 6.10227 6.76455 6.1627 6.83719C6.32396 7.01654 7.06621 6.56474 7.7762 5.7837C7.78961 5.77006 7.80206 5.75643 7.81363 5.74282L7.81363 5.74282C8.1044 5.44312 8.28069 5.20246 8.39511 5.00493C8.4589 4.90954 8.50773 4.82782 8.54307 4.75518C8.75513 4.40778 8.95185 4.09221 9.76408 3.43151C10.6002 2.82531 11.0932 2.58692 11.5904 2.35761C11.6951 2.31449 11.7988 2.26906 11.9184 2.21458C12.1765 2.1033 12.4479 1.97389 12.7732 1.78545C12.7892 1.77637 12.8061 1.7673 12.822 1.7582C13.4392 1.43352 13.7379 1.21783 13.6536 1.21783L13.6528 1.21558C12.5533 1.63332 11.4938 2.15555 10.4876 2.78672L10.4876 2.78671ZM19.1832 0.0349838C19.0884 0.0485984 18.8977 0.0826408 18.5006 0.155315C17.685 0.370996 17.0598 0.452785 16.4773 0.554908C16.3647 0.573079 16.2345 0.600345 16.1228 0.627568C15.8275 0.695689 15.5358 0.779697 15.221 0.91138C15.2033 0.91817 15.1856 0.925027 15.1689 0.934041C14.368 1.31322 14.1926 1.76506 14.8205 1.96485C15.5252 2.23052 16.8098 2.05111 17.6334 1.54938C17.6494 1.54028 17.6664 1.53123 17.6822 1.51983C17.9935 1.34048 18.1301 1.18613 18.178 1.04759C18.2232 0.988584 18.232 0.931819 18.2409 0.87732C18.2763 0.652549 18.2808 0.452785 19.0893 0.209827C19.866 0.0576793 20.4849 0.0508968 21.0468 0.0554229C21.1836 0.0599738 21.2987 0.0645229 21.4167 0.0668021C21.6888 0.0758716 21.9602 0.0872089 22.1941 0.0917598C22.2138 0.0940581 22.2138 0.0940581 22.2323 0.0940581C22.2724 0.096326 22.3306 0.100845 22.3688 0.10539L22.3688 0.10539C21.3049 -0.00585257 20.2393 -0.0285386 19.1832 0.0350009L19.1832 0.0349838ZM24.244 2.09651C23.5649 2.51197 22.2039 2.45976 21.274 1.97615C20.391 1.55384 20.3147 0.963538 21.0265 0.666106C21.7049 0.443617 22.9079 0.520777 23.7449 0.822773C24.6314 1.19509 24.8923 1.76045 24.244 2.09645L24.244 2.09651ZM16.6646 3.20225C16.3205 3.46561 16.1823 3.7131 16.1182 3.96285C16.09 4.07408 16.0651 4.18759 16.0713 4.2966C16.013 4.83923 16.0308 5.44996 15.0536 6.35585C14.081 7.30945 13.2964 7.40254 12.5932 7.54329C12.4374 7.57054 12.2881 7.60915 12.134 7.66593C11.7988 7.77262 11.4619 7.95199 11.1205 8.32434L11.1205 8.32434C11.1001 8.34253 11.0806 8.36297 11.0611 8.38565C10.2243 9.32336 10.1799 10.6584 10.9904 11.4053C11.8643 12.1955 13.3229 12.0388 14.2158 11.0285C14.2369 11.0058 14.2583 10.9808 14.2708 10.9626L14.2717 10.9626C14.6359 10.5607 14.7698 10.1884 14.8247 9.816C14.8523 9.65937 14.8665 9.50268 14.8586 9.34605C14.8885 8.63539 14.8595 7.89523 15.847 6.91667C16.8195 5.99037 17.6494 5.93586 18.413 5.84502C18.5777 5.83369 18.7533 5.80871 18.913 5.77238C19.2887 5.69975 19.6577 5.56577 19.9989 5.25927C20.0255 5.24341 20.0381 5.2275 20.0646 5.21161C20.899 4.4964 20.7739 3.47244 19.8376 2.92754C18.9342 2.44391 17.5758 2.54834 16.7213 3.1591C16.7069 3.17275 16.6945 3.18411 16.6646 3.20225L16.6646 3.20225ZM22.2058 11.8912C21.2989 12.8834 19.6569 12.9469 18.5769 12.0319C17.5167 11.151 17.4154 9.68203 18.3216 8.74662C19.2126 7.85208 20.7697 7.78625 21.8334 8.6036C22.9124 9.45728 23.0889 10.9285 22.2058 11.8912L22.2058 11.8912ZM27.1193 1.78318C26.9341 1.86037 26.8985 1.97616 26.9332 2.12373C26.9341 2.18279 26.9518 2.25091 26.9872 2.32355C27.1254 2.67777 27.3241 3.11139 26.6503 3.56321C25.9355 4.11266 25.1589 4.03997 24.4497 4.02864C24.2884 4.01953 24.1413 4.0241 23.9932 4.03999C23.6358 4.07181 23.2928 4.15807 22.986 4.41464L22.9851 4.41464C22.9692 4.426 22.9524 4.44188 22.9363 4.45323C22.1198 5.12985 22.2864 6.32411 23.3558 7.10967C24.4268 7.93383 25.9517 7.9679 26.7188 7.20275C26.7399 7.18912 26.7488 7.17096 26.7682 7.15735C27.0645 6.86446 27.1299 6.56704 27.1282 6.26961C27.1319 6.14471 27.1203 6.01757 27.0891 5.89041C26.983 5.31373 26.81 4.7166 27.522 4.1467C28.1542 3.65628 28.842 3.79252 29.4423 3.89471C29.5718 3.92423 29.688 3.9401 29.8067 3.95146C30.0824 3.98782 30.32 3.98325 30.477 3.86064C30.4982 3.8629 30.5025 3.85382 30.5071 3.847C30.8652 3.61317 30.415 3.01828 29.5221 2.47111C28.6398 1.98068 27.6078 1.65829 27.1611 1.77631C27.1416 1.77631 27.1388 1.78315 27.1193 1.78315L27.1193 1.78318ZM33.3805 4.7574C33.2342 4.65298 33.0144 4.49404 32.8033 4.35782C32.719 4.30332 32.6331 4.25337 32.5613 4.21478C32.3831 4.12394 32.2447 4.07856 32.1651 4.12394L32.1651 4.12394C32.1464 4.11488 32.1438 4.11942 32.141 4.12394C31.8829 4.29197 32.351 5.06168 33.2271 5.79954C34.0942 6.58281 34.9303 6.95066 35.073 6.68274C35.0765 6.67819 35.0799 6.67592 35.0704 6.65777C35.1171 6.58735 35.0402 6.43983 34.9232 6.27408C34.8762 6.21049 34.8275 6.14468 34.7635 6.06746C34.5935 5.86993 34.4018 5.66561 34.2759 5.53621C34.1554 5.42494 34.0331 5.31368 33.9088 5.2047C33.7342 5.05256 33.5576 4.90502 33.3805 4.75742L33.3805 4.7574ZM33.6572 9.17804C33.1606 9.82736 31.9416 9.67755 30.953 8.78526C29.9325 7.9066 29.6071 6.69646 30.1905 6.11751C30.7117 5.60436 31.8608 5.86546 32.7838 6.6556C33.6809 7.47294 34.0854 8.58321 33.6572 9.17804L33.6572 9.17804ZM26.1751 9.94771C25.8373 10.3041 25.745 10.6719 25.7273 11.0489C25.7122 11.2123 25.7221 11.3826 25.7424 11.5484C25.8002 12.3339 25.9357 13.2058 24.9729 14.3047C23.9835 15.4376 23.0562 15.4444 22.2121 15.5216C22.0249 15.5261 21.8432 15.5511 21.6668 15.5965C21.2492 15.6828 20.8511 15.8599 20.4734 16.2913L20.4734 16.2913C20.4512 16.314 20.4325 16.3344 20.4106 16.3571C19.4777 17.431 19.6426 19.1112 20.7827 20.117C21.9247 21.1183 23.6049 21.0547 24.5349 19.9785C24.5544 19.9558 24.5729 19.9354 24.5925 19.9104L24.5925 19.9104C24.9666 19.4744 25.0863 19.0544 25.1166 18.6275C25.136 18.4459 25.1351 18.2575 25.1157 18.0736C25.0775 17.2177 24.9622 16.2959 25.942 15.1561C26.8994 14.0504 27.7789 14.0686 28.5583 14.0164C28.7285 14.0186 28.8951 14.0004 29.0556 13.9664C29.4326 13.9074 29.7746 13.7552 30.0867 13.3783C30.101 13.3556 30.1205 13.342 30.1338 13.3193C30.8679 12.4157 30.6029 10.9558 29.5496 10.0158C28.4909 9.10537 27.0147 9.03952 26.2266 9.89319C26.2062 9.9091 26.1856 9.925 26.1751 9.94771L26.1751 9.94771ZM32.5065 21.2135C31.7075 22.2421 30.2472 22.3374 29.2347 21.402C28.1877 20.4439 28.0307 18.8024 28.8863 17.7647C29.7163 16.7521 31.1853 16.7272 32.1755 17.6966C33.1233 18.6457 33.2688 20.2055 32.5065 21.2135L32.5065 21.2135ZM35.6821 8.43099C35.5817 8.60579 35.6093 8.84417 35.6831 9.11437C35.7105 9.23017 35.7416 9.34369 35.7884 9.47085C35.9693 10.0543 36.1961 10.7218 35.799 11.4189C35.3329 12.2067 34.7227 12.1159 34.1421 12.0863C34.0116 12.075 33.8851 12.0795 33.7618 12.1C33.4603 12.1272 33.1845 12.2453 32.9372 12.579L32.9372 12.579C32.9265 12.6017 32.9088 12.6108 32.8991 12.6358C32.2429 13.4917 32.4869 15.0197 33.4426 15.9756C34.3567 16.9224 35.5553 16.9247 36.1138 16.0324C36.1246 16.0165 36.1352 15.9961 36.1467 15.9779L36.1467 15.9779C36.3566 15.6396 36.3968 15.2831 36.3781 14.9244C36.3745 14.7746 36.3603 14.6269 36.3302 14.4681C36.2221 13.7619 36.0465 12.9968 36.4915 12.2089C36.8464 11.4756 37.2984 11.6141 37.6663 11.7026C37.7427 11.7299 37.8118 11.739 37.8721 11.7321C38.0194 11.7458 38.1389 11.7117 38.1823 11.5006C38.1798 11.4802 38.185 11.4756 38.1823 11.4575C38.2391 10.9942 37.7816 10.0089 37.1796 9.19612C36.5318 8.39693 35.8735 8.01092 35.6919 8.40148C35.6847 8.40602 35.6892 8.42645 35.6821 8.43099L35.6821 8.43099ZM40.1054 17.4242C39.9077 18.1735 39.3155 18.178 38.7808 17.3538C38.1761 16.4933 37.943 15.1447 38.2595 14.4091C38.5042 13.7188 39.0974 13.9005 39.5832 14.736C39.999 15.5465 40.2322 16.7158 40.1054 17.4242L40.1054 17.4242ZM40.6015 16.18C40.6442 16.432 40.6902 16.684 40.7406 16.9542C40.7608 17.07 40.7847 17.2039 40.8056 17.3197C40.8954 17.8987 40.9784 18.5163 40.9287 19.2927C40.7855 20.1328 40.5735 20.1623 40.3408 20.2486C40.2835 20.2463 40.2272 20.2804 40.1701 20.3144C40.0278 20.3826 39.8846 20.5392 39.7385 20.8912L39.7394 20.8912C39.731 20.9093 39.7235 20.9275 39.7149 20.9434C39.3014 21.8311 39.2967 23.1366 39.6843 23.8041C39.9847 24.4035 40.4449 24.1493 40.7332 23.3001C40.7378 23.2819 40.7437 23.2638 40.7482 23.2433C40.8418 22.9141 40.8868 22.6303 40.9173 22.3261C40.9296 22.1921 40.9375 22.0786 40.9441 21.9424C40.9671 21.3475 40.9631 20.7163 41.0718 19.8921C41.092 19.4675 41.1008 19.2723 41.1013 19.177C41.0148 18.1212 40.8364 17.0677 40.567 16.0256L40.566 16.0278C40.5766 16.0665 40.5841 16.1028 40.5927 16.1437C40.5966 16.1618 40.6015 16.18 40.6015 16.18L40.6015 16.18ZM35.7159 19.0703C35.4596 19.4517 35.3781 19.8377 35.3577 20.2213C35.3435 20.3848 35.3427 20.5642 35.354 20.7299C35.3674 21.5041 35.4242 22.3373 34.6413 23.4431C33.8106 24.5579 33.0763 24.6282 32.3838 24.7417C32.2315 24.7554 32.0764 24.7917 31.9212 24.8485C31.5674 24.9439 31.219 25.1277 30.8722 25.5455C30.8519 25.5682 30.8316 25.5932 30.8163 25.6091C29.9369 26.6421 29.9814 28.1179 30.8768 28.883C31.7233 29.5914 33.0302 29.3689 33.8415 28.4108C33.8592 28.3858 33.877 28.3654 33.8939 28.3426L33.8949 28.3426C34.2122 27.9521 34.3451 27.5934 34.4116 27.2324C34.4401 27.0825 34.4559 26.9282 34.4624 26.7692C34.5073 26.0495 34.4986 25.2435 35.3055 24.1446C36.0643 23.0503 36.6698 22.9845 37.193 22.8686C37.3046 22.8459 37.412 22.8209 37.5184 22.7619C37.7577 22.6643 37.9812 22.4917 38.1957 22.1148C38.2064 22.099 38.2171 22.0831 38.2293 22.0535C38.7162 21.134 38.6354 19.7491 38.0362 18.9158C37.3712 18.0575 36.3462 18.0689 35.754 18.9975C35.7415 19.027 35.7283 19.043 35.7159 19.0702L35.7159 19.0703ZM38.4919 28.0113C37.9198 28.9058 37.1378 29.2578 36.7008 28.7628C36.1901 28.1997 36.2957 26.9147 36.9571 25.9657C37.5822 24.9984 38.4385 24.7918 38.85 25.4207C39.1807 25.9951 39.005 27.1349 38.4919 28.0113L38.4919 28.0113ZM40.1063 25.7385C39.9637 26.0882 39.8748 26.3743 39.7951 26.6648C39.7579 26.792 39.7287 26.901 39.7011 27.0123C39.5496 27.539 39.3883 28.0658 38.9014 28.9785C38.351 29.8912 38.0482 30.1386 37.7275 30.393C37.6593 30.4338 37.5832 30.4928 37.4981 30.5678C37.3152 30.7085 37.1018 30.9129 36.8446 31.2421C36.833 31.2558 36.8107 31.2852 36.7993 31.2988C36.1272 32.1094 35.7851 32.9335 36.0111 33.0698C36.1166 33.1447 36.5236 32.7656 36.972 32.2411C37.216 31.9437 37.4482 31.6394 37.6692 31.3284L37.6715 31.3239L37.6744 31.3216L37.6771 31.317L37.6795 31.3125L37.6823 31.3102C37.7171 31.2603 37.7515 31.2103 37.786 31.1603C37.8491 31.0673 37.9014 30.9878 37.951 30.9084C38.1822 30.5201 38.397 30.0978 38.9226 29.2055C39.2393 28.6038 39.4067 28.2859 39.5134 28.0657L39.5175 28.0635C39.9742 27.0122 40.3278 25.9224 40.5771 24.8145L40.5744 24.8122C40.5733 24.6533 40.3856 24.9756 40.1267 25.6863C40.1194 25.7021 40.1124 25.7203 40.1063 25.7385" id="path44" fill="currentColor" fill-rule="evenodd" stroke="none" />
      </g>
    </g>
  </g>
</svg>