<?xml version="1.0" encoding="utf-8"?>
<svg width="166px" height="29px" viewBox="0 0 166 29" version="1.1" xmlns:xlink="http://www.w3.org/1999/xlink" xmlns="http://www.w3.org/2000/svg">
  <defs>
    <path d="M166 0L166 0L166 29L0 29L0 0L166 0Z" id="path_1" />
    <clipPath id="clip_1">
      <use xlink:href="#path_1" clip-rule="evenodd" fill-rule="evenodd" />
    </clipPath>
  </defs>
  <g id="logo_prestcontas">
    <path d="M166 0L166 0L166 29L0 29L0 0L166 0Z" id="logo_prestcontas" fill="none" stroke="none" />
    <path d="M73.3227 0L165.047 0.527432L160.933 18.9247L0 18.9283L0.00845672 18.4571L68.5933 17.8163L73.3227 0L73.3227 0ZM141.977 3.38735C141.346 2.75747 140.6 2.41171 139.739 2.34739C139.554 2.32996 139.359 2.32594 139.15 2.33666C138.288 2.40099 137.542 2.74675 136.912 3.37662C136.389 3.89928 136.061 4.50236 135.924 5.18315C135.924 5.18306 132.588 17.8798 132.588 17.8798L135.671 17.8798L136.498 14.7385L142.39 14.7385L143.217 17.8798L146.301 17.8798L142.965 5.1912C142.827 4.51173 142.5 3.91001 141.977 3.38735L141.977 3.38735ZM83.4947 14.5065C83.216 14.7839 82.7925 14.8991 82.2363 14.8991L78.0484 14.8991C77.4936 14.8991 77.0688 14.7839 76.7914 14.5065C76.5139 14.2277 76.3973 13.8042 76.3973 13.2481L76.3973 6.96684C76.3973 6.41068 76.5139 5.98719 76.7914 5.70978C77.0688 5.43103 77.4936 5.31578 78.0484 5.31578L82.2363 5.31578C82.7925 5.31578 83.216 5.43103 83.4947 5.70978C83.7721 5.98719 83.8874 6.41068 83.8874 6.96684L83.8874 7.40909L86.8679 7.40909L86.8679 6.96684C86.8679 5.42835 86.4605 4.28253 85.6912 3.51195C84.922 2.74271 83.7748 2.3353 82.2363 2.3353L78.0484 2.3353C76.5099 2.3353 75.3641 2.74271 74.5948 3.51195C73.8256 4.28253 73.4182 5.42835 73.4182 6.96684L73.4182 13.2481C73.4182 14.7866 73.8256 15.9337 74.5948 16.703C75.3641 17.4722 76.5099 17.8796 78.0484 17.8796L82.2363 17.8796C83.7748 17.8796 84.922 17.4722 85.6912 16.703C86.4605 15.9337 86.8679 14.7866 86.8679 13.2481L86.8679 12.8059L83.8874 12.8059L83.8874 13.2481C83.8874 13.8042 83.7721 14.2277 83.4947 14.5065L83.4947 14.5065ZM89.0751 3.51196C88.3059 4.28255 87.8985 5.42838 87.8985 6.96689L87.8985 13.2482C87.8985 14.7867 88.3059 15.9339 89.0751 16.7031C89.8444 17.4724 90.9902 17.8798 92.5287 17.8798L97.7635 17.8798C99.302 17.8798 100.449 17.4724 101.218 16.7031C101.988 15.9339 102.395 14.7867 102.395 13.2482L102.395 6.96689C102.395 5.42838 101.988 4.28255 101.218 3.51196C100.449 2.74271 99.302 2.3353 97.7635 2.3353L92.5287 2.3353C90.9902 2.3353 89.8444 2.74271 89.0751 3.51196L89.0751 3.51196ZM107.19 17.8796L107.19 5.92019C107.19 5.76607 107.219 5.63876 107.302 5.54629C107.463 5.36671 107.757 5.31578 108.16 5.31578C108.937 5.31578 109.473 5.94163 109.878 7.08343C109.878 7.08477 111.127 13.3298 111.127 13.3298C111.446 15.1444 112.148 16.4028 113.187 17.1291C113.896 17.625 114.767 17.8796 115.803 17.8796C117.107 17.8796 118.077 17.5647 118.73 16.9817C119.397 16.3827 119.754 15.4928 119.754 14.2961L119.754 2.3353L116.773 2.3353L116.773 14.2961C116.773 14.4502 116.745 14.5775 116.662 14.67C116.5 14.8482 116.206 14.8991 115.803 14.8991C115.026 14.8991 114.49 14.2733 114.085 13.1315L112.836 6.88509C112.517 5.07054 111.815 3.81214 110.776 3.08578C110.067 2.59127 109.197 2.3353 108.16 2.3353C106.856 2.3353 105.886 2.65024 105.235 3.23454C104.566 3.83225 104.209 4.7221 104.209 5.92019L104.209 17.8796L107.19 17.8796L107.19 17.8796ZM128.767 17.8796L128.767 5.31578L134.003 5.31578L134.003 2.3353L120.554 2.3353L120.554 5.31578L125.788 5.31578L125.788 17.8796L128.767 17.8796L128.767 17.8796ZM158.425 3.51195C157.656 2.74271 156.51 2.3353 154.971 2.3353L150.783 2.3353C148.941 2.3353 147.664 2.80972 146.928 3.67946C146.419 4.27986 146.152 5.07589 146.152 6.07698C146.152 8.43564 147.958 10.2462 151.703 11.3692C153.734 11.979 155.16 12.5619 155.972 13.1355C156.204 13.299 156.381 13.4572 156.496 13.618C156.574 13.7238 156.622 13.8257 156.622 13.9289C156.622 14.6432 156.029 14.8991 154.971 14.8991L150.783 14.8991C150.227 14.8991 149.804 14.7839 149.526 14.5065C149.248 14.2277 149.132 13.8042 149.132 13.2481L149.132 12.8059L146.152 12.8059L146.152 13.2481C146.152 14.7866 146.559 15.9337 147.329 16.703C148.098 17.4722 149.245 17.8796 150.783 17.8796L154.971 17.8796C156.814 17.8796 158.09 17.4066 158.827 16.5355C159.335 15.9351 159.602 15.139 159.602 14.1379C159.602 11.7793 157.795 9.96876 154.051 8.84572C152.02 8.23595 150.594 7.653 149.782 7.08075C149.55 6.91725 149.374 6.75778 149.257 6.5983C149.181 6.49109 149.132 6.39058 149.132 6.28604C149.132 5.57175 149.725 5.31578 150.783 5.31578L154.971 5.31578C155.526 5.31578 155.951 5.43103 156.228 5.70978C156.506 5.98719 156.622 6.41068 156.622 6.96684L156.622 7.40909L159.602 7.40909L159.602 6.96684C159.602 5.42835 159.194 4.28253 158.425 3.51195L158.425 3.51195ZM91.2717 5.7098C91.5491 5.43105 91.9726 5.3158 92.5288 5.3158L97.7635 5.3158C98.3197 5.3158 98.7432 5.43105 99.0206 5.7098C99.2993 5.98722 99.4146 6.41071 99.4146 6.96687L99.4146 13.2482C99.4146 13.8043 99.2993 14.2278 99.0206 14.5066C98.7432 14.784 98.3197 14.8992 97.7635 14.8992L92.5288 14.8992C91.9726 14.8992 91.5491 14.784 91.2717 14.5066C90.9929 14.2278 90.8777 13.8043 90.8777 13.2482L90.8777 6.96687C90.8777 6.41071 90.9929 5.98722 91.2717 5.7098L91.2717 5.7098ZM140.034 5.80633C139.994 5.69241 139.962 5.59458 139.865 5.5115C139.6 5.28368 139.29 5.28368 139.017 5.50748C138.93 5.59057 138.883 5.69778 138.855 5.79561L138.746 6.16415C138.415 7.42524 137.275 11.7593 137.275 11.7593L141.613 11.7593L140.143 6.17353L140.034 5.80633L140.034 5.80633Z" id="CONTAS" fill="currentColor" fill-rule="evenodd" stroke="none" clip-path="url(#clip_1)" />
    <path d="M14.8948 6.51874C14.8948 3.72719 13.4997 2.33075 10.7068 2.33075L2.33069 2.33075L2.33069 16.9881L4.42536 16.9881L4.42536 11.7534L10.7068 11.7534C13.4997 11.7534 14.8948 10.357 14.8948 7.5654L14.8948 6.51874ZM29.5533 6.51874C29.5533 3.72719 28.1568 2.33075 25.3652 2.33075L16.9892 2.33075L16.9892 16.9881L19.0825 16.9881L19.0825 11.7534L22.9677 11.7534L26.9252 16.9881L29.5533 16.9881L25.5958 11.7534C28.2332 11.677 29.5533 10.2806 29.5533 7.5654L29.5533 6.51874ZM44.4514 14.8946L44.4514 16.9879L31.8875 16.9879L31.8875 2.33075L44.4514 2.33075L44.4514 4.42405L33.9822 4.42405L33.9822 8.612L42.3581 8.612L42.3581 10.7066L33.9822 10.7066L33.9822 14.8946L44.4514 14.8946ZM54.0214 2.33075C56.8128 2.33075 58.2093 3.72718 58.2093 6.5187L56.1146 6.5187C56.1146 5.12227 55.4164 4.42405 54.0214 4.42405L49.8334 4.42405C48.437 4.42405 47.7388 4.89579 47.7388 5.8379C47.7388 6.78003 49.4836 7.77441 52.9733 8.82241C56.4644 9.86906 58.2093 11.492 58.2093 13.6898C58.2093 15.889 56.8128 16.9879 54.0214 16.9879L49.8334 16.9879C47.0405 16.9879 45.6455 15.5928 45.6455 12.7999L47.7388 12.7999C47.7388 14.1964 48.437 14.8946 49.8334 14.8946L54.0214 14.8946C55.4164 14.8946 56.1146 14.4229 56.1146 13.4807C56.1146 12.5386 54.3698 11.5442 50.88 10.4976C47.3903 9.44959 45.6455 7.82668 45.6455 5.62884C45.6455 3.42967 47.0405 2.33075 49.8334 2.33075L54.0214 2.33075ZM66.2595 4.42405L66.2595 16.9879L64.1662 16.9879L64.1662 4.42405L58.9316 4.42405L58.9316 2.33075L71.4954 2.33075L71.4954 4.42405L66.2595 4.42405ZM10.7068 9.66007L4.42535 9.66007L4.42535 4.42406L10.7068 4.42406C12.1032 4.42406 12.8014 5.12229 12.8014 6.51873L12.8014 7.56539C12.8014 8.96184 12.1032 9.66007 10.7068 9.66007ZM25.3653 9.66007L19.0826 9.66007L19.0826 4.42406L25.3653 4.42406C26.7604 4.42406 27.4586 5.12229 27.4586 6.51873L27.4586 7.56539C27.4586 8.96184 26.7604 9.66007 25.3653 9.66007Z" id="PREST" fill="currentColor" fill-rule="evenodd" stroke="none" clip-path="url(#clip_1)" />
    <path d="M127.035 20.9767L128.053 20.9767L127.104 22.1839L126.462 22.1839L127.035 20.9767L127.035 20.9767ZM104.36 21.4692C104.524 21.2903 104.734 21.2009 104.99 21.2009C105.168 21.2009 105.411 21.2787 105.718 21.4346C105.888 21.5214 106.023 21.5646 106.124 21.5646C106.216 21.5646 106.286 21.5393 106.335 21.4888C106.384 21.4383 106.418 21.3379 106.438 21.1879L106.999 21.1879C106.99 21.5167 106.907 21.7637 106.751 21.928C106.594 22.0925 106.395 22.1749 106.154 22.1749C105.973 22.1749 105.734 22.0942 105.438 21.9323C105.246 21.8286 105.105 21.7767 105.015 21.7767C104.918 21.7767 104.839 21.8113 104.778 21.8804C104.715 21.9499 104.685 22.0523 104.688 22.1879L104.114 22.1879C104.111 21.8877 104.194 21.648 104.36 21.4692L104.36 21.4692ZM40.2747 23.35C40.8379 22.7564 41.5654 22.4597 42.4564 22.4597C43.0398 22.4597 43.5655 22.5991 44.034 22.8779C44.5026 23.1567 44.8599 23.5454 45.1055 24.0441C45.3512 24.5427 45.4741 25.1082 45.4741 25.7407C45.4741 26.3817 45.3449 26.9548 45.086 27.4608C44.8274 27.9667 44.4609 28.3497 43.9867 28.6097C43.5126 28.8699 43.001 29.0001 42.4521 29.0001C41.857 29.0001 41.3253 28.8563 40.8568 28.569C40.3883 28.2816 40.0333 27.8892 39.792 27.3918C39.5506 26.8945 39.4297 26.3688 39.4297 25.8138C39.4297 24.7649 39.7115 23.9434 40.2747 23.35L40.2747 23.35ZM109.797 23.35C110.361 22.7564 111.088 22.4597 111.979 22.4597C112.562 22.4597 113.089 22.5991 113.557 22.8779C114.025 23.1567 114.383 23.5454 114.628 24.0441C114.874 24.5427 114.997 25.1082 114.997 25.7407C114.997 26.3817 114.868 26.9548 114.609 27.4608C114.35 27.9667 113.984 28.3497 113.509 28.6097C113.035 28.8699 112.524 29.0001 111.975 29.0001C111.38 29.0001 110.848 28.8563 110.379 28.569C109.911 28.2816 109.556 27.8892 109.315 27.3918C109.073 26.8945 108.952 26.3688 108.952 25.8138C108.952 24.7649 109.234 23.9434 109.797 23.35L109.797 23.35ZM10.6102 26.7925L9.82147 26.8614C9.8327 27.2839 9.94861 27.6627 10.1685 27.9974C10.3883 28.3325 10.6916 28.5831 11.078 28.7497C11.4647 28.9166 11.9438 29 12.516 29C12.967 29 13.3732 28.9172 13.7338 28.752C14.0944 28.5868 14.3712 28.3553 14.5635 28.058C14.7562 27.7604 14.8526 27.4435 14.8526 27.1074C14.8526 26.768 14.7648 26.4684 14.5897 26.2084C14.4142 25.9482 14.1427 25.7333 13.7748 25.5638C13.5219 25.4489 13.0554 25.3145 12.3756 25.1608C11.6959 25.0069 11.2757 24.8569 11.1147 24.7102C10.9509 24.5635 10.8691 24.3768 10.8691 24.1497C10.8691 23.8881 10.9846 23.6646 11.2161 23.4792C11.4475 23.2941 11.816 23.2014 12.322 23.2014C12.8077 23.2014 13.1749 23.3033 13.4232 23.5073C13.6719 23.7112 13.8179 24.0132 13.861 24.4125L14.6629 24.3523C14.6486 23.9814 14.545 23.6497 14.3523 23.3563C14.1599 23.0633 13.8848 22.8411 13.5269 22.6905C13.1689 22.5395 12.7557 22.464 12.2872 22.464C11.8621 22.464 11.4753 22.5358 11.1277 22.6796C10.78 22.8232 10.5154 23.0338 10.3343 23.3113C10.1533 23.5884 10.0629 23.8867 10.0629 24.2056C10.0629 24.496 10.1367 24.7582 10.2847 24.9926C10.4327 25.2267 10.6578 25.4231 10.9595 25.581C11.1923 25.7045 11.5992 25.8363 12.1796 25.9757C12.76 26.1151 13.1351 26.2177 13.3047 26.2839C13.5692 26.3843 13.759 26.5088 13.8738 26.6568C13.9888 26.8048 14.0464 26.978 14.0464 27.1763C14.0464 27.3716 13.9868 27.5521 13.8676 27.7173C13.748 27.8825 13.5663 28.0126 13.3219 28.1074C13.0779 28.2024 12.7961 28.2498 12.4769 28.2498C12.1177 28.2498 11.7946 28.1871 11.5071 28.0623C11.2197 27.9371 11.0075 27.7733 10.8711 27.5706C10.7347 27.368 10.6476 27.1088 10.6102 26.7925L10.6102 26.7925ZM16.526 26.7925L15.737 26.8614C15.7486 27.2839 15.8641 27.6627 16.084 27.9974C16.3038 28.3325 16.6072 28.5831 16.9939 28.7497C17.3802 28.9166 17.8597 29 18.4315 29C18.8828 29 19.2888 28.9172 19.6493 28.752C20.0103 28.5868 20.2867 28.3553 20.4794 28.058C20.6721 27.7604 20.7681 27.4435 20.7681 27.1074C20.7681 26.768 20.6807 26.4684 20.5052 26.2084C20.3301 25.9482 20.0582 25.7333 19.6904 25.5638C19.4374 25.4489 18.9712 25.3145 18.2914 25.1608C17.6117 25.0069 17.1912 24.8569 17.0303 24.7102C16.8664 24.5635 16.7846 24.3768 16.7846 24.1497C16.7846 23.8881 16.9001 23.6646 17.1316 23.4792C17.363 23.2941 17.7316 23.2014 18.2375 23.2014C18.7232 23.2014 19.0905 23.3033 19.3391 23.5073C19.5878 23.7112 19.7335 24.0132 19.7768 24.4125L20.5784 24.3523C20.5641 23.9814 20.4609 23.6497 20.2682 23.3563C20.0754 23.0633 19.8003 22.8411 19.4424 22.6905C19.0848 22.5395 18.6716 22.464 18.2031 22.464C17.7776 22.464 17.3912 22.5358 17.0432 22.6796C16.6956 22.8232 16.431 23.0338 16.2502 23.3113C16.0691 23.5884 15.9784 23.8867 15.9784 24.2056C15.9784 24.496 16.0525 24.7582 16.2006 24.9926C16.3486 25.2267 16.5734 25.4231 16.8754 25.581C17.1081 25.7045 17.5147 25.8363 18.0951 25.9757C18.6759 26.1151 19.051 26.2177 19.2206 26.2839C19.4847 26.3843 19.6745 26.5088 19.7897 26.6568C19.9046 26.8048 19.9619 26.978 19.9619 27.1763C19.9619 27.3716 19.9023 27.5521 19.7831 27.7173C19.6639 27.8825 19.4821 28.0126 19.2378 28.1074C18.9934 28.2024 18.7117 28.2498 18.3928 28.2498C18.0336 28.2498 17.7101 28.1871 17.4227 28.0623C17.1353 27.9371 16.9233 27.7733 16.7869 27.5706C16.6502 27.368 16.5634 27.1088 16.526 26.7925L16.526 26.7925ZM28.3574 26.7925L27.5684 26.8614C27.5799 27.2839 27.6955 27.6627 27.9153 27.9974C28.1352 28.3325 28.4385 28.5831 28.8252 28.7497C29.2116 28.9166 29.691 29 30.2629 29C30.7142 29 31.1201 28.9172 31.4807 28.752C31.8416 28.5868 32.118 28.3553 32.3107 28.058C32.5031 27.7604 32.5995 27.4435 32.5995 27.1074C32.5995 26.768 32.5121 26.4684 32.3366 26.2084C32.1611 25.9482 31.8896 25.7333 31.5217 25.5638C31.2688 25.4489 30.8026 25.3145 30.1228 25.1608C29.443 25.0069 29.0226 24.8569 28.8616 24.7102C28.6977 24.5635 28.616 24.3768 28.616 24.1497C28.616 23.8881 28.7315 23.6646 28.9629 23.4792C29.1944 23.2941 29.5629 23.2014 30.0688 23.2014C30.5546 23.2014 30.9218 23.3033 31.1704 23.5073C31.4191 23.7112 31.5648 24.0132 31.6078 24.4125L32.4098 24.3523C32.3955 23.9814 32.2919 23.6497 32.0995 23.3563C31.9068 23.0633 31.6316 22.8411 31.2737 22.6905C30.9161 22.5395 30.5029 22.464 30.0344 22.464C29.6089 22.464 29.2225 22.5358 28.8746 22.6796C28.5269 22.8232 28.2623 23.0338 28.0812 23.3113C27.9004 23.5884 27.8097 23.8867 27.8097 24.2056C27.8097 24.496 27.8839 24.7582 28.0319 24.9926C28.1799 25.2267 28.4047 25.4231 28.7064 25.581C28.9394 25.7045 29.3461 25.8363 29.9265 25.9757C30.5073 26.1151 30.8824 26.2177 31.0519 26.2839C31.3161 26.3843 31.5059 26.5088 31.6211 26.6568C31.736 26.8048 31.7933 26.978 31.7933 27.1763C31.7933 27.3716 31.7336 27.5521 31.6144 27.7173C31.4952 27.8825 31.3135 28.0126 31.0691 28.1074C30.8248 28.2024 30.543 28.2498 30.2241 28.2498C29.8649 28.2498 29.5414 28.1871 29.254 28.0623C28.9666 27.9371 28.7547 27.7733 28.6183 27.5706C28.4816 27.368 28.3948 27.1088 28.3574 26.7925L28.3574 26.7925ZM34.2728 26.7925L33.4838 26.8614C33.4954 27.2839 33.6113 27.6627 33.8312 27.9974C34.051 28.3325 34.3539 28.5831 34.7407 28.7497C35.1274 28.9166 35.6065 29 36.1783 29C36.6296 29 37.0356 28.9172 37.3965 28.752C37.757 28.5868 38.0339 28.3553 38.2262 28.058C38.4189 27.7604 38.5153 27.4435 38.5153 27.1074C38.5153 26.768 38.4275 26.4684 38.252 26.2084C38.0769 25.9482 37.8054 25.7333 37.4376 25.5638C37.1846 25.4489 36.718 25.3145 36.0383 25.1608C35.3585 25.0069 34.9383 24.8569 34.7775 24.7102C34.6135 24.5635 34.5314 24.3768 34.5314 24.1497C34.5314 23.8881 34.6473 23.6646 34.8788 23.4792C35.1099 23.2941 35.4788 23.2014 35.9843 23.2014C36.4704 23.2014 36.8372 23.3033 37.0859 23.5073C37.3345 23.7112 37.4806 24.0132 37.5236 24.4125L38.3256 24.3523C38.311 23.9814 38.2077 23.6497 38.0149 23.3563C37.8226 23.0633 37.5475 22.8411 37.1895 22.6905C36.8316 22.5395 36.4184 22.464 35.9499 22.464C35.5247 22.464 35.138 22.5358 34.7903 22.6796C34.4424 22.8232 34.1782 23.0338 33.9971 23.3113C33.8159 23.5884 33.7255 23.8867 33.7255 24.2056C33.7255 24.496 33.7994 24.7582 33.9474 24.9926C34.0954 25.2267 34.3202 25.4231 34.6222 25.581C34.8549 25.7045 35.2615 25.8363 35.8423 25.9757C36.4227 26.1151 36.7978 26.2177 36.9673 26.2839C37.2319 26.3843 37.4216 26.5088 37.5366 26.6568C37.6514 26.8048 37.709 26.978 37.709 27.1763C37.709 27.3716 37.6494 27.5521 37.5299 27.7173C37.4107 27.8825 37.2289 28.0126 36.9846 28.1074C36.7402 28.2024 36.4588 28.2498 36.1396 28.2498C35.7803 28.2498 35.4572 28.1871 35.1698 28.0623C34.8824 27.9371 34.6702 27.7733 34.5337 27.5706C34.3973 27.368 34.3102 27.1088 34.2728 26.7925L34.2728 26.7925ZM82.1031 25.6718L82.1031 26.4131L83.9612 26.4131L83.9612 27.5901C83.7831 27.7481 83.5215 27.8971 83.1765 28.0365C82.8318 28.1759 82.4782 28.2454 82.116 28.2454C81.6994 28.2454 81.3055 28.1534 80.935 27.9696C80.5641 27.7855 80.2817 27.5037 80.0876 27.1246C79.8937 26.7452 79.7966 26.2737 79.7966 25.7104C79.7966 25.2535 79.8771 24.8294 80.038 24.4387C80.133 24.2115 80.2658 24.0033 80.437 23.8136C80.6078 23.6238 80.8326 23.4705 81.1114 23.3543C81.3902 23.2378 81.721 23.1799 82.1031 23.1799C82.4222 23.1799 82.7123 23.2351 82.9739 23.3457C83.2355 23.4563 83.4368 23.6036 83.5774 23.7874C83.7185 23.9715 83.8364 24.2245 83.9311 24.5463L84.6857 24.3394C84.5764 23.9139 84.4168 23.5692 84.2069 23.3047C83.9973 23.0405 83.7076 22.8342 83.3384 22.6862C82.9689 22.5381 82.5557 22.464 82.0987 22.464C81.4693 22.464 80.9131 22.5934 80.4303 22.8521C79.9476 23.1107 79.5774 23.5067 79.3202 24.0397C79.0629 24.5728 78.9344 25.1469 78.9344 25.7621C78.9344 26.3829 79.0639 26.9448 79.3225 27.4478C79.581 27.9507 79.9642 28.3351 80.4714 28.601C80.9786 28.8669 81.5425 29 82.1633 29C82.6232 29 83.0719 28.9172 83.5086 28.752C83.9453 28.5868 84.3695 28.3401 84.7803 28.0126L84.7803 25.6674L82.1031 25.6718L82.1031 25.6718ZM92.4601 26.7925L91.6711 26.8614C91.6827 27.2839 91.7982 27.6627 92.0181 27.9974C92.2379 28.3325 92.5412 28.5831 92.9279 28.7497C93.3143 28.9166 93.7937 29 94.3655 29C94.8168 29 95.2228 28.9172 95.5837 28.752C95.9443 28.5868 96.2211 28.3553 96.4134 28.058C96.6061 27.7604 96.7021 27.4435 96.7021 27.1074C96.7021 26.768 96.6147 26.4684 96.4393 26.2084C96.2641 25.9482 95.9922 25.7333 95.6244 25.5638C95.3714 25.4489 94.9053 25.3145 94.2255 25.1608C93.5458 25.0069 93.1256 24.8569 92.9643 24.7102C92.8008 24.5635 92.7187 24.3768 92.7187 24.1497C92.7187 23.8881 92.8345 23.6646 93.0657 23.4792C93.2971 23.2941 93.6656 23.2014 94.1716 23.2014C94.6573 23.2014 95.0245 23.3033 95.2731 23.5073C95.5218 23.7112 95.6675 24.0132 95.7108 24.4125L96.5127 24.3523C96.4982 23.9814 96.3948 23.6497 96.2021 23.3563C96.0094 23.0633 95.7343 22.8411 95.3767 22.6905C95.0188 22.5395 94.6056 22.464 94.1371 22.464C93.7116 22.464 93.3252 22.5358 92.9773 22.6796C92.6296 22.8232 92.3654 23.0338 92.1842 23.3113C92.0032 23.5884 91.9125 23.8867 91.9125 24.2056C91.9125 24.496 91.9866 24.7582 92.1346 24.9926C92.2826 25.2267 92.5074 25.4231 92.8094 25.581C93.0422 25.7045 93.4487 25.8363 94.0295 25.9757C94.6099 26.1151 94.985 26.2177 95.1546 26.2839C95.4191 26.3843 95.6088 26.5088 95.7237 26.6568C95.8386 26.8048 95.8962 26.978 95.8962 27.1763C95.8962 27.3716 95.8363 27.5521 95.7171 27.7173C95.5979 27.8825 95.4161 28.0126 95.1718 28.1074C94.9274 28.2024 94.646 28.2498 94.3268 28.2498C93.9676 28.2498 93.6441 28.1871 93.3567 28.0623C93.0693 27.9371 92.8574 27.7733 92.721 27.5706C92.5842 27.368 92.4975 27.1088 92.4601 26.7925L92.4601 26.7925ZM149.577 26.8872L148.741 26.676C148.626 27.2078 148.406 27.6087 148.081 27.8789C147.757 28.149 147.36 28.2842 146.892 28.2842C146.506 28.2842 146.149 28.1852 145.818 27.9868C145.487 27.7885 145.244 27.4888 145.087 27.0879C144.93 26.6869 144.852 26.2177 144.852 25.6804C144.852 25.2635 144.918 24.8589 145.051 24.4665C145.183 24.0742 145.412 23.7616 145.738 23.5288C146.064 23.2961 146.47 23.1799 146.956 23.1799C147.379 23.1799 147.729 23.2845 148.008 23.4944C148.287 23.7043 148.5 24.0391 148.646 24.499L149.469 24.3049C149.3 23.7216 149 23.2689 148.569 22.9467C148.137 22.6249 147.606 22.464 146.973 22.464C146.416 22.464 145.905 22.5911 145.441 22.8454C144.976 23.1 144.619 23.4722 144.367 23.9622C144.116 24.4523 143.99 25.0264 143.99 25.6846C143.99 26.2883 144.101 26.8528 144.324 27.3789C144.547 27.9047 144.871 28.3063 145.299 28.5838C145.725 28.8613 146.279 29 146.96 29C147.619 29 148.176 28.8196 148.631 28.459C149.087 28.0981 149.402 27.5743 149.577 26.8872L149.577 26.8872ZM5.92334 22.572L6.82428 22.572L9.41119 28.8921L8.45825 28.8921L7.72125 26.978L5.07837 26.978L4.38403 28.8921L3.49603 28.8921L5.92334 22.572L5.92334 22.572ZM21.9545 22.572L21.9545 28.8921L26.671 28.8921L26.671 28.1464L22.7908 28.1464L22.7908 25.9949L26.2873 25.9949L26.2873 25.2536L22.7908 25.2536L22.7908 23.3176L26.5243 23.3176L26.5243 22.572L21.9545 22.572L21.9545 22.572ZM46.5912 22.572L49.3937 22.572C49.9569 22.572 50.3854 22.6286 50.6784 22.7421C50.9717 22.8557 51.2058 23.056 51.3813 23.3434C51.5564 23.6309 51.6442 23.9487 51.6442 24.2963C51.6442 24.7447 51.4992 25.1228 51.2088 25.4301C50.9184 25.7377 50.4701 25.9333 49.8635 26.0164C50.085 26.1227 50.2532 26.2277 50.3682 26.3313C50.6125 26.5555 50.8436 26.8356 51.0621 27.172L52.1614 28.8921L51.1095 28.8921L50.2731 27.5773C50.0287 27.1978 49.8278 26.9075 49.6695 26.7065C49.5116 26.5051 49.3699 26.3644 49.245 26.284C49.1199 26.2032 48.9927 26.1472 48.8633 26.1158C48.7686 26.0956 48.6133 26.0856 48.3978 26.0856L47.4279 26.0856L47.4279 28.8921L46.5912 28.8921L46.5912 22.572L46.5912 22.572ZM53.1236 22.572L53.1236 28.8925L54.1236 28.8925L54.1236 22.572L53.1236 22.572L53.1236 22.572ZM57.1937 22.572L58.095 22.572L60.6815 28.8921L59.7289 28.8921L58.9916 26.978L56.3487 26.978L55.6547 28.8921L54.7667 28.8921L57.1937 22.572L57.1937 22.572ZM63.3861 22.572L63.3861 28.8921L68.1025 28.8921L68.1025 28.1464L64.2225 28.1464L64.2225 25.9949L67.7188 25.9949L67.7188 25.2536L64.2225 25.2536L64.2225 23.3176L67.9559 23.3176L67.9559 22.572L63.3861 22.572L63.3861 22.572ZM69.2586 22.572L69.2586 28.8921L70.0648 28.8921L70.0648 23.5117L71.8929 28.8921L72.6474 28.8921L74.4841 23.6024L74.4841 28.8921L75.2903 28.8921L75.2903 22.572L74.1649 22.572L72.6517 26.9694C72.4994 27.4147 72.3872 27.7524 72.3154 27.9825C72.2521 27.7756 72.1515 27.4637 72.0137 27.0469L70.5174 22.572L69.2586 22.572L69.2586 22.572ZM86.0572 22.572L86.0572 28.8921L90.7738 28.8921L90.7738 28.1464L86.8936 28.1464L86.8936 25.9949L90.3901 25.9949L90.3901 25.2536L86.8936 25.2536L86.8936 23.3176L90.6271 23.3176L90.6271 22.572L86.0572 22.572L86.0572 22.572ZM99.4795 23.3176L99.4795 28.8921L100.316 28.8921L100.316 23.3176L102.407 23.3176L102.407 22.572L97.3972 22.572L97.3972 23.3176L99.4795 23.3176L99.4795 23.3176ZM105.024 22.572L105.925 22.572L108.512 28.8921L107.559 28.8921L106.822 26.978L104.179 26.978L103.485 28.8921L102.597 28.8921L105.024 22.572L105.024 22.572ZM118.581 22.572L120.965 22.572C121.384 22.572 121.705 22.5918 121.926 22.6322C122.236 22.6839 122.497 22.7822 122.707 22.9276C122.916 23.0726 123.085 23.2759 123.213 23.5375C123.341 23.799 123.405 24.0864 123.405 24.3997C123.405 24.9374 123.234 25.392 122.892 25.7645C122.55 26.1367 121.932 26.3227 121.038 26.3227L119.417 26.3227L119.417 28.8921L118.581 28.8921L118.581 22.572L118.581 22.572ZM129.48 22.572L129.48 26.2234C129.48 26.8588 129.408 27.363 129.264 27.7369C129.12 28.1103 128.861 28.4143 128.486 28.6484C128.111 28.8828 127.619 29 127.009 29C126.417 29 125.933 28.8981 125.557 28.6937C125.18 28.4898 124.911 28.1945 124.75 27.8077C124.59 27.4213 124.509 26.8932 124.509 26.2234L124.509 22.572L125.345 22.572L125.345 26.2191C125.345 26.7681 125.396 27.1727 125.498 27.4329C125.601 27.6928 125.776 27.8935 126.024 28.0342C126.273 28.1749 126.577 28.2454 126.936 28.2454C127.551 28.2454 127.989 28.106 128.251 27.8273C128.513 27.5485 128.643 27.0124 128.643 26.2191L128.643 22.572L129.48 22.572L129.48 22.572ZM130.865 22.572L133.236 22.572C133.719 22.572 134.106 22.6359 134.398 22.7637C134.689 22.8915 134.918 23.0885 135.083 23.3544C135.249 23.6202 135.331 23.8984 135.331 24.1884C135.331 24.4586 135.258 24.7132 135.111 24.9516C134.965 25.1903 134.743 25.3827 134.447 25.5294C134.83 25.6413 135.124 25.8327 135.329 26.1028C135.534 26.373 135.637 26.6919 135.637 27.0598C135.637 27.3558 135.575 27.6312 135.45 27.8856C135.325 28.1398 135.17 28.3358 134.986 28.4739C134.802 28.612 134.572 28.7159 134.294 28.7865C134.017 28.857 133.677 28.8921 133.275 28.8921L130.865 28.8921L130.865 22.572L130.865 22.572ZM136.78 22.572L136.78 28.8921L140.729 28.8921L140.729 28.1464L137.617 28.1464L137.617 22.572L136.78 22.572L136.78 22.572ZM141.894 22.572L141.894 28.8925L142.894 28.8925L142.894 22.572L141.894 22.572L141.894 22.572ZM152.367 22.572L153.268 22.572L155.855 28.8921L154.902 28.8921L154.165 26.978L151.522 26.978L150.828 28.8921L149.94 28.8921L152.367 22.572L152.367 22.572ZM40.9065 27.627C41.316 28.065 41.8296 28.2842 42.4477 28.2842C43.0772 28.2842 43.595 28.063 44.0019 27.6204C44.4086 27.1777 44.6119 26.5496 44.6119 25.7363C44.6119 25.2218 44.5248 24.7728 44.3509 24.3891C44.1771 24.0053 43.9228 23.708 43.5881 23.4968C43.253 23.2855 42.8773 23.1799 42.4607 23.1799C41.8683 23.1799 41.3591 23.3832 40.9323 23.7898C40.5055 24.1964 40.292 24.8755 40.292 25.8267C40.292 26.5886 40.4969 27.1886 40.9065 27.627L40.9065 27.627ZM110.429 27.627C110.839 28.065 111.353 28.2842 111.97 28.2842C112.6 28.2842 113.118 28.063 113.525 27.6204C113.931 27.1777 114.135 26.5496 114.135 25.7363C114.135 25.2218 114.048 24.7728 113.874 24.3891C113.7 24.0053 113.445 23.708 113.111 23.4968C112.776 23.2855 112.4 23.1799 111.983 23.1799C111.391 23.1799 110.882 23.3832 110.455 23.7898C110.028 24.1964 109.815 24.8755 109.815 25.8267C109.815 26.5886 110.019 27.1886 110.429 27.627L110.429 27.627ZM7.46234 26.2969L6.80279 24.5463C6.60144 24.0146 6.45215 23.5778 6.35443 23.2358C6.27399 23.6411 6.16046 24.0433 6.01373 24.443L5.31976 26.2969L7.46234 26.2969L7.46234 26.2969ZM58.733 26.2969L58.0735 24.5463C57.8721 24.0146 57.7228 23.5778 57.6251 23.2358C57.5447 23.6411 57.4311 24.0433 57.2844 24.443L56.5904 26.2969L58.733 26.2969L58.733 26.2969ZM106.563 26.2969L105.904 24.5463C105.702 24.0145 105.553 23.5778 105.455 23.2358C105.375 23.6411 105.261 24.0433 105.115 24.443L104.421 26.2969L106.563 26.2969L106.563 26.2969ZM153.907 26.2969L153.247 24.5463C153.046 24.0146 152.896 23.5778 152.798 23.2358C152.718 23.6411 152.604 24.0433 152.458 24.443L151.764 26.2969L153.907 26.2969L153.907 26.2969ZM49.2255 25.3611C49.6079 25.3611 49.9069 25.3218 50.1224 25.2426C50.338 25.1635 50.5015 25.037 50.6138 24.8632C50.7257 24.6893 50.782 24.5003 50.782 24.2963C50.782 23.9973 50.6734 23.7516 50.4565 23.559C50.2393 23.3666 49.8966 23.2702 49.4281 23.2702L47.4279 23.2702L47.4279 25.3611L49.2255 25.3611L49.2255 25.3611ZM121.051 25.5767C121.591 25.5767 121.975 25.4761 122.202 25.2751C122.429 25.0738 122.543 24.7906 122.543 24.4258C122.543 24.1613 122.476 23.9348 122.342 23.7467C122.209 23.5583 122.032 23.4341 121.814 23.3735C121.673 23.3365 121.413 23.3176 121.033 23.3176L119.417 23.3176L119.417 25.5767L121.051 25.5767L121.051 25.5767ZM133.068 25.2274C133.438 25.2274 133.704 25.2032 133.865 25.1542C134.078 25.091 134.238 24.986 134.346 24.8397C134.454 24.693 134.508 24.5089 134.508 24.2877C134.508 24.0778 134.457 23.8931 134.357 23.7338C134.256 23.5742 134.113 23.465 133.926 23.406C133.739 23.347 133.418 23.3176 132.964 23.3176L131.701 23.3176L131.701 25.2274L133.068 25.2274L133.068 25.2274ZM133.275 28.1464C133.545 28.1464 133.734 28.1362 133.844 28.116C134.036 28.0815 134.197 28.0242 134.327 27.9438C134.456 27.8633 134.562 27.7462 134.646 27.5922C134.729 27.4385 134.771 27.261 134.771 27.0598C134.771 26.824 134.71 26.6194 134.59 26.4456C134.469 26.2717 134.301 26.1495 134.087 26.079C133.873 26.0085 133.565 25.9734 133.163 25.9734L131.701 25.9734L131.701 28.1464L133.275 28.1464L133.275 28.1464Z" id="DESC" fill="currentColor" fill-rule="evenodd" stroke="none" clip-path="url(#clip_1)" />
  </g>
</svg>