<?xml version="1.0" encoding="utf-8"?>
<svg width="174px" height="168px" viewBox="0 0 174 168" version="1.1" xmlns:xlink="http://www.w3.org/1999/xlink" xmlns="http://www.w3.org/2000/svg">
  <defs>
    <path d="M174 0L174 0L174 168L0 168L0 0L174 0Z" id="path_1" />
    <path d="M0 41.639L0 0L72 1.90735e-06L72 41.639L0 41.639Z" id="path_2" />
    <clipPath id="clip_1">
      <use xlink:href="#path_1" clip-rule="evenodd" fill-rule="evenodd" />
    </clipPath>
    <clipPath id="clip_2">
      <use xlink:href="#path_2" clip-rule="evenodd" fill-rule="evenodd" />
    </clipPath>
  </defs>
  <g id="logo-sanjas">
    <path d="M174 0L174 0L174 168L0 168L0 0L174 0Z" id="logo-sanjas" fill="none" stroke="none" />
    <g id="TEXTO" transform="translate(1 105)" clip-path="url(#clip_1)">
      <g id="TEXTO">
        <path d="M3.93577 60.6549L5.31824 60.6549L5.31824 52.1752L8.85422 52.1752L8.85422 51.0322L0.39975 51.0322L0.39975 52.1752L3.93577 52.1752L3.93577 60.6549ZM9.62872 60.6549L15.8425 60.6549L15.8425 59.512L11.0119 59.512L11.0119 56.2031L15.13 56.2031L15.13 55.0995L11.0119 55.0995L11.0119 52.1752L15.7122 52.1752L15.7122 51.0322L9.62872 51.0322L9.62872 60.6549ZM16.371 55.8703C16.371 58.6876 18.6841 60.8015 21.8856 60.8015C22.9913 60.8015 24.1402 60.5476 24.9851 60.0558L24.9851 58.6606C24.1554 59.2723 23.1222 59.6318 21.958 59.6318C19.4407 59.6318 17.7527 57.9829 17.7527 55.8435C17.7527 53.7026 19.4407 52.0552 21.8417 52.0552C22.962 52.0552 24.0391 52.4148 24.8247 52.946L24.8247 51.5635C23.9952 51.1377 22.962 50.8855 21.8563 50.8855C18.5531 50.8855 16.371 53.132 16.371 55.8703L16.371 55.8703ZM26.1675 60.6549L27.5499 60.6549L27.5499 56.23L33.2828 56.23L33.2828 60.6549L34.6651 60.6549L34.6651 51.0322L33.2828 51.0322L33.2828 55.0853L27.5499 55.0853L27.5499 51.0322L26.1675 51.0322L26.1675 60.6549ZM37.6665 60.6549L37.6665 55.8168C37.6665 54.8867 37.6524 53.9155 37.6378 53.0784L37.6665 53.0658C38.2631 53.8225 38.8739 54.5808 39.4853 55.3123L43.8949 60.6549L45.2041 60.6549L45.2041 51.0322L43.8656 51.0322L43.8656 55.8705C43.8656 56.8005 43.8802 57.7699 43.8949 58.6088L43.8656 58.6213C43.2688 57.8648 42.6574 57.1063 42.0461 56.375L37.6378 51.0322L36.3279 51.0322L36.3279 60.6549L37.6665 60.6549ZM46.2708 55.8436C46.2708 58.6337 48.57 60.8015 51.6256 60.8015C54.6807 60.8015 56.9805 58.6337 56.9805 55.8436C56.9805 53.0516 54.6807 50.8855 51.6256 50.8855C48.57 50.8855 46.2708 53.0516 46.2708 55.8436L46.2708 55.8436ZM47.6526 55.8436C47.6526 53.7296 49.3257 52.0553 51.6255 52.0553C53.9241 52.0553 55.598 53.7295 55.598 55.8436C55.598 57.9576 53.9241 59.6318 51.6255 59.6318C49.3257 59.6318 47.6526 57.9576 47.6526 55.8436L47.6526 55.8436ZM58.0458 60.6549L64.4053 60.6549L64.4053 59.512L59.4282 59.512L59.4282 51.0322L58.0458 51.0322L58.0458 60.6549ZM64.3077 55.8436C64.3077 58.6337 66.6063 60.8015 69.6611 60.8015C72.7175 60.8015 75.0168 58.6337 75.0168 55.8436C75.0168 53.0516 72.7175 50.8855 69.6611 50.8855C66.6063 50.8855 64.3077 53.0516 64.3077 55.8436L64.3077 55.8436ZM65.6894 55.8436C65.6894 53.7296 67.3627 52.0553 69.6611 52.0553C71.9611 52.0553 73.6343 53.7295 73.6343 55.8436C73.6343 57.9576 71.9611 59.6318 69.6611 59.6318C67.3627 59.6318 65.6894 57.9576 65.6894 55.8436L65.6894 55.8436ZM75.5005 55.8703C75.5005 58.7269 77.8437 60.8015 80.9572 60.8015C82.3104 60.8015 83.6782 60.4153 84.6096 59.8304L84.6096 55.856L80.8701 55.856L80.8701 56.9595L83.2272 56.9595L83.2272 59.2062C82.6451 59.4851 81.8888 59.6587 81.0735 59.6587C78.4545 59.6587 76.883 57.8898 76.883 55.8436C76.883 53.7294 78.5562 52.0552 81.0304 52.0552C82.2819 52.0552 83.4455 52.481 84.289 53.1177L84.289 51.6833C83.5332 51.2575 82.4268 50.8855 81.0589 50.8855C77.7852 50.8855 75.5005 53.039 75.5005 55.8703L75.5005 55.8703ZM88.9934 60.6549L90.376 60.6549L90.376 56.2961L94.4062 51.0322L92.8641 51.0322L91.0892 53.3717C90.6094 54.0087 90.1577 54.6076 89.7206 55.2194L89.6921 55.2194C89.2408 54.5934 88.7753 53.9834 88.3241 53.3843L86.5345 51.0322L84.9338 51.0322L88.9934 56.3086L88.9934 60.6549" id="TECHNOLOGY" fill="currentColor" fill-rule="evenodd" stroke="none" />
        <g id="INSIGHT">
          <path d="M108.886 19.2864C108.006 18.9842 107.101 18.7445 106.186 18.5978C104.917 18.3939 103.616 18.3242 102.332 18.3242C101.54 18.3242 100.766 18.4494 100.016 18.7051C99.2898 18.9537 98.6115 19.3043 97.9993 19.7694C97.4466 20.1897 97.0143 20.7066 96.6977 21.3254C96.3645 21.9747 96.2299 22.6776 96.2299 23.4056L96.2299 36.1958C96.2299 40.653 100.66 40.6423 104.028 41.0769L104.028 48.3136C99.6336 47.9916 96.6099 48.0882 92.9617 45.2801C91.5863 44.2213 90.5015 42.8977 89.6984 41.3577C88.8184 39.6746 88.4531 37.8288 88.4531 35.9383L88.4531 23.2768C88.4531 21.4041 88.8017 19.5672 89.6626 17.8949C90.4463 16.371 91.5088 15.0617 92.8565 14.0065C94.1909 12.9601 95.6938 12.2036 97.3154 11.7152C98.9468 11.2252 100.628 10.9819 102.332 10.9819C103.434 10.9819 104.537 11.0231 105.634 11.1161C106.705 11.2073 107.77 11.354 108.826 11.5525C109.949 11.7636 111.055 12.0515 112.143 12.4003C113.369 12.7938 114.58 13.2445 115.776 13.7238L116.599 14.0547L116.599 48.081C116.599 49.9895 116.257 51.889 115.346 53.5828C114.542 55.0745 113.464 56.3498 112.095 57.3478C110.751 58.3279 109.252 59.0291 107.656 59.4852C106.026 59.952 104.35 60.1827 102.655 60.1827C100.289 60.1827 97.9916 59.7356 95.7914 58.8628C95.136 58.6034 94.5052 58.3047 93.9002 57.9667L93.9002 55.5717L97.0024 51.4114C97.3537 51.5921 97.715 51.7548 98.0816 51.9015C98.7662 52.1751 99.4717 52.3916 100.192 52.5472C100.852 52.6903 101.528 52.7761 102.203 52.7761C103.11 52.7761 104.015 52.6974 104.907 52.5383C105.658 52.4041 106.386 52.1626 107.041 51.7674C107.611 51.4257 108.053 50.9678 108.388 50.3919C109.292 48.8376 108.886 26.0527 108.886 19.2864" id="path14" fill="currentColor" fill-rule="evenodd" stroke="none" />
          <path d="M21.3794 19.5029L21.3794 47.7144L13.6026 47.7144L13.6026 14.1317L14.4907 13.8295C16.6777 13.0836 18.8947 12.4272 21.1347 11.862C23.3587 11.2986 25.6376 10.982 27.9508 10.982C29.6602 11.0285 31.33 11.2932 32.9509 11.7797C34.5605 12.2644 36.061 13.0049 37.3981 14.028C38.7455 15.06 39.8123 16.3496 40.5994 17.8538C41.4756 19.5315 41.8131 21.3952 41.8131 23.2768L41.8131 47.7144L34.1004 47.7144L34.1004 23.0818C34.1004 22.3825 33.9736 21.685 33.6104 21.0768C33.2575 20.4884 32.8058 19.9983 32.244 19.6048C31.6416 19.1845 30.9765 18.8894 30.2688 18.698C29.5048 18.4941 28.7239 18.3886 27.9333 18.3886C26.5683 18.3886 25.2082 18.5317 23.8773 18.8393C23.0449 19.0307 22.202 19.2453 21.3794 19.5029" id="path18" fill="currentColor" fill-rule="evenodd" stroke="none" />
          <path d="M59.6945 40.9553C60.3268 40.9553 60.9459 40.8587 61.5475 40.6638C62.1319 40.4742 62.6721 40.1987 63.1629 39.8285C63.6014 39.4994 63.9535 39.0987 64.2107 38.614C64.4791 38.1096 64.5725 37.5391 64.5725 36.9703C64.5725 36.4695 64.4938 35.9186 64.1989 35.4983C63.8943 35.0637 63.5059 34.7256 63.0444 34.4627C62.4685 34.1372 61.8508 33.8921 61.2136 33.7151C60.5067 33.5183 59.7914 33.3573 59.0712 33.2232C57.642 32.9603 56.2248 32.6347 54.8193 32.2663C53.3434 31.88 51.94 31.2843 50.6629 30.4473C49.3843 29.6102 48.3358 28.5317 47.5278 27.2314C46.5789 25.7039 46.2665 23.8885 46.2665 22.1142C46.2665 20.2862 46.6326 18.4923 47.5835 16.9129C48.4166 15.5286 49.5028 14.3606 50.8462 13.4627C52.1645 12.5827 53.616 11.9621 55.1504 11.5704C56.6369 11.193 58.1594 10.9819 59.6945 10.9819C61.6703 10.9819 63.6021 11.3575 65.4579 12.0283C67.4414 12.7473 69.1842 13.8759 70.6762 15.3729L71.5357 16.2333L66.6445 21.9335L65.6469 20.8908C64.8416 20.0502 63.9005 19.3526 62.799 18.9573C61.7992 18.5996 60.7576 18.3885 59.6945 18.3885C58.9966 18.3885 58.2974 18.4654 57.6115 18.5924C56.9449 18.7158 56.3085 18.9358 55.7138 19.2614C55.1945 19.5457 54.7531 19.916 54.4065 20.3971C54.0761 20.855 53.9785 21.4309 53.9785 21.9836C53.9785 22.5255 54.0754 23.0979 54.4372 23.52C54.8388 23.9904 55.3269 24.3446 55.888 24.6021C56.588 24.9223 57.3242 25.1566 58.0743 25.3211C58.8587 25.4928 59.6465 25.6556 60.4517 25.7969C61.8292 26.0724 63.1735 26.4354 64.4924 26.8754C65.8609 27.3334 67.15 27.9808 68.3093 28.8447C69.4917 29.7283 70.4371 30.8426 71.1531 32.1339C71.9841 33.6328 72.2852 35.3355 72.2852 37.0365C72.2852 38.7696 71.9714 40.4813 71.1718 42.032C70.4566 43.4164 69.4946 44.6183 68.2772 45.5896C67.0711 46.5518 65.7054 47.2458 64.2302 47.6912C62.7551 48.1383 61.2359 48.3619 59.6945 48.3619C56.9269 48.3619 54.2539 47.8163 51.7219 46.7003C48.9269 45.4661 46.7991 43.3359 45.1803 40.7746L44.5034 39.7033L50.5101 35.5895L51.245 36.6949C52.1967 38.1258 53.4285 39.2114 55.0007 39.9036C56.4889 40.5582 58.0625 40.9553 59.6945 40.9553" id="path20" fill="currentColor" fill-rule="evenodd" stroke="none" />
          <path d="M75.6697 11.6313L83.7197 11.6313L83.7197 47.6658L75.6697 47.6658L75.6697 11.6313Z" id="Retângulo" fill="currentColor" fill-rule="evenodd" stroke="none" />
          <path d="M0 11.6851L8.04997 11.6851L8.04997 47.7196L0 47.7196L0 11.6851Z" id="Retângulo-Copy" fill="currentColor" fill-rule="evenodd" stroke="none" />
          <path d="M129.989 19.6335L129.989 47.7144L122.213 47.7144L122.213 0L129.989 0L129.989 12.2268C130.826 11.9103 131.684 11.6527 132.562 11.4631C133.976 11.1591 135.418 10.982 136.866 10.982C137.016 10.982 137.166 10.982 137.317 10.982C138.858 10.982 140.381 11.1913 141.865 11.6134C143.471 12.0695 144.96 12.8046 146.262 13.8563C147.581 14.9259 148.587 16.2691 149.325 17.793C150.171 19.5423 150.487 21.4757 150.487 23.4056L150.487 47.7145L142.774 47.7145L142.774 23.3412C142.774 22.6079 142.65 21.8656 142.277 21.2253C141.922 20.6172 141.465 20.1021 140.897 19.6871C140.284 19.24 139.595 18.9306 138.867 18.7267C138.066 18.5031 137.246 18.3886 136.414 18.3886C135.25 18.3886 134.08 18.4834 132.937 18.7177C131.944 18.9198 130.947 19.2525 129.989 19.6335" id="path24" fill="currentColor" fill-rule="evenodd" stroke="none" />
          <path d="M163.427 11.6276L170.26 11.6276L170.26 19.0342L163.427 19.0342L163.427 36.067C163.427 36.8396 163.587 37.5766 163.896 38.2848C164.204 38.986 164.653 39.5726 165.241 40.0609C165.873 40.5868 166.605 40.9248 167.398 41.1233L167.432 41.1323L167.466 41.143C167.925 41.2843 168.405 41.3416 168.885 41.3416C169.403 41.3416 169.926 41.2754 170.433 41.1735L172 40.8604L172 48.0774L170.853 48.2223C170.496 48.267 170.137 48.301 169.778 48.326C169.417 48.3493 169.054 48.3617 168.691 48.3617C166.956 48.3617 165.238 48.1131 163.593 47.548C162.048 47.0149 160.633 46.2172 159.427 45.1083C158.234 44.0137 157.327 42.6919 156.69 41.202C155.995 39.5762 155.715 37.8288 155.715 36.067L155.715 3.16577L163.427 3.16577L163.427 11.6276" id="path26" fill="currentColor" fill-rule="evenodd" stroke="none" />
        </g>
        <g id="GPC" transform="translate(147.17133 51.980225)">
          <path d="M20.9866 10.0197C20.4644 10.0197 19.9513 9.94992 19.4494 9.81399C18.9473 9.67446 18.4971 9.467 18.1004 9.18622C17.7037 8.90718 17.385 8.55839 17.144 8.14171C16.9026 7.72317 16.782 7.24023 16.782 6.68933L16.782 3.33035C16.782 2.77948 16.9026 2.29476 17.144 1.87803C17.385 1.4613 17.7037 1.11426 18.1004 0.83886C18.4971 0.563385 18.9523 0.354111 19.4648 0.212845C19.9771 0.0714836 20.4992 0 21.032 0C21.3631 0 21.7039 0.0357437 22.056 0.109077C22.4081 0.182407 22.749 0.304085 23.0808 0.473976C23.4121 0.643852 23.7263 0.872795 24.0234 1.16263C24.3184 1.45055 24.5729 1.81187 24.784 2.24288L22.5838 3.05496C22.4025 2.75269 22.1419 2.54158 21.7997 2.42176C21.529 2.3216 21.262 2.26976 21.002 2.26976C20.9218 2.26976 20.8403 2.27512 20.7599 2.28403C20.4184 2.3216 20.1193 2.42894 19.8628 2.60778C19.6076 2.78662 19.4794 3.02809 19.4794 3.33036L19.4794 6.68936C19.4794 6.98268 19.6076 7.21875 19.8628 7.39766C20.1193 7.57653 20.4184 7.68023 20.7599 7.70709C20.8207 7.71605 20.8813 7.72134 20.9413 7.72134C21.2223 7.72134 21.499 7.66052 21.7696 7.5425C22.0916 7.41375 22.3273 7.17941 22.4778 6.84136L24.8286 7.83222C24.6083 8.22573 24.3463 8.56378 24.0456 8.84283C23.7431 9.12358 23.4225 9.3508 23.0808 9.52606C22.7393 9.6995 22.3878 9.82478 22.026 9.9034C21.665 9.98039 21.3177 10.0197 20.9866 10.0197" id="path30" fill="currentColor" fill-rule="evenodd" stroke="none" />
          <path d="M12.8614 4.84361C13.1332 4.84361 13.3592 4.78468 13.5395 4.6648C13.7208 4.54678 13.8562 4.39653 13.9467 4.21758C14.0373 4.03876 14.0819 3.84758 14.0819 3.63983C14.0819 3.43417 14.0373 3.24103 13.9467 3.06216C13.8562 2.88337 13.7208 2.73484 13.5395 2.61501C13.3592 2.49512 13.1332 2.43616 12.8614 2.43616L11.2953 2.43616L11.2953 4.84361L12.8614 4.84361ZM8.59735 0.137756L12.8614 0.137756C13.5152 0.137756 14.0848 0.23613 14.572 0.432861C15.0594 0.629662 15.4666 0.888954 15.7928 1.21088C16.1197 1.53107 16.3624 1.89951 16.5242 2.31269C16.6836 2.72407 16.7647 3.14618 16.7647 3.57907C16.7647 4.01019 16.6816 4.434 16.5155 4.85077C16.3499 5.26937 16.1065 5.6378 15.7843 5.95969C15.4639 6.28158 15.0594 6.53919 14.572 6.7378C14.0848 6.93443 13.5194 7.03284 12.8772 7.03284L11.2953 7.03284L11.2953 9.88204L8.59737 9.88204L8.59737 0.137756" id="path32" fill="currentColor" fill-rule="evenodd" stroke="none" />
          <path d="M4.17328 2.18929C4.10269 2.18929 4.03311 2.19289 3.96265 2.20181C3.7312 2.21967 3.52341 2.27691 3.33798 2.37351C3.15114 2.4701 2.99853 2.59526 2.87785 2.75269C2.75793 2.90829 2.69724 3.09251 2.69724 3.30357L2.69724 6.64822C2.69724 6.90398 2.77544 7.1168 2.93021 7.28676C3.08699 7.45843 3.27942 7.58367 3.51088 7.66593C3.74245 7.74823 3.99052 7.78937 4.25621 7.78937C4.52176 7.78937 4.77133 7.7464 5.00278 7.66052C5.23358 7.57111 5.42743 7.44596 5.58208 7.27957C5.739 7.11506 5.81644 6.90396 5.81644 6.64821L5.81644 6.29048L4.11395 6.29048L4.11395 4.22462L8.40767 4.22462L8.40767 6.64821C8.40767 7.20623 8.28986 7.69811 8.05429 8.12024C7.81802 8.5423 7.5036 8.8929 7.11247 9.17371C6.71994 9.45275 6.27373 9.66377 5.77115 9.80689C5.26851 9.9482 4.7518 10.0197 4.2193 10.0197C3.68654 10.0197 3.16861 9.94816 2.66655 9.80689C2.16473 9.66377 1.71495 9.45275 1.31837 9.17371C0.921646 8.89293 0.602341 8.5423 0.361023 8.12024C0.121323 7.69811 0 7.20623 0 6.64821L0 3.30355C0 2.75265 0.121323 2.26974 0.361023 1.85657C0.602341 1.44514 0.921646 1.09998 1.31837 0.824512C1.71495 0.550861 2.16473 0.34341 2.66655 0.205719C3.16861 0.0679283 3.68654 0 4.2193 0C4.56015 0 4.91215 0.0339928 5.27341 0.10376C5.63582 0.171696 5.98247 0.287991 6.31421 0.452473C6.64528 0.618847 6.95061 0.833469 7.23225 1.09998C7.51341 1.36648 7.74539 1.692 7.92596 2.07831L5.66508 3.02808C5.56544 2.8081 5.42184 2.63283 5.23566 2.50582C5.0502 2.37525 4.84737 2.28402 4.62569 2.22856C4.48561 2.20171 4.33492 2.1892 4.17328 2.1892" id="path34" fill="currentColor" fill-rule="evenodd" stroke="none" />
        </g>
      </g>
    </g>
    <g id="BOLAS" transform="translate(50 24)" clip-path="url(#clip_1)">
      <g id="BOLA-EXTERNA">
        <path d="M36.9348 70.0091C39.6691 71.0331 42.4352 71.494 45.1252 71.3215C47.7433 70.8015 50.2976 69.9819 52.734 68.8785C53.8361 68.186 54.8574 67.3686 55.7947 66.4309C53.5603 66.9463 51.1745 67.1938 48.6884 67.1711C47.1802 67.1575 45.6349 67.0462 44.0639 66.8373C42.1178 67.9498 40.139 68.8739 38.1574 69.5937C37.7505 69.739 37.3425 69.8797 36.9348 70.0091L36.9348 70.0091ZM13.7873 47.4002C13.5959 46.9189 13.4095 46.4352 13.2305 45.9449L13.2093 45.8904C11.9867 42.546 11.123 39.1903 10.6008 35.905C10.0699 37.601 9.65408 39.2902 9.35156 40.9567C10.5733 43.1523 12.0575 45.316 13.7873 47.4002L13.7873 47.4002ZM36.4366 72.543C35.5587 72.055 34.6865 71.4873 33.8192 70.8401C32.9061 71.1343 31.9964 71.3628 31.0947 71.515C32.8662 72.0653 34.6517 72.408 36.4366 72.543L36.4366 72.543ZM22.1054 58.524C22.4822 58.697 22.8626 58.864 23.2455 59.0248C23.0825 58.8791 22.9202 58.7304 22.7589 58.5786C22.3138 58.1658 21.8757 57.7469 21.444 57.322C21.6622 57.7257 21.8828 58.1294 22.1054 58.524L22.1054 58.524ZM8.9031 50.5742C9.75695 51.3712 10.678 52.1341 11.6631 52.856C13.7555 54.3931 16.1308 55.7554 18.7302 56.8997C17.9536 55.7236 17.2141 54.4931 16.5173 53.2148C13.4965 50.3745 10.944 47.2935 8.91286 44.1171C8.79329 45.3568 8.73899 46.5828 8.7505 47.7816C8.76025 48.7308 8.8118 49.6616 8.9031 50.5743L8.9031 50.5742ZM3.45766 29.5613C3.01586 30.5558 2.66931 31.5775 2.42465 32.6265C2.16134 35.1285 2.17455 37.6464 2.45395 40.1393C3.15346 43.0592 4.63944 45.8292 6.76282 48.3356C6.75853 48.1586 6.75498 47.9838 6.75312 47.8045C6.73266 45.6974 6.90288 43.5201 7.26368 41.3064C6.51726 39.9078 5.87109 38.5002 5.33114 37.0902C4.35921 34.5609 3.727 32.0293 3.45766 29.5613L3.45766 29.5613ZM10.6408 20.886C8.51389 22.5003 6.71573 24.3189 5.32035 26.2988C5.23065 29.5205 5.87983 32.9421 7.19715 36.375C7.41803 36.9517 7.65835 37.5284 7.91625 38.1028C8.45435 35.8892 9.18065 33.655 10.0938 31.4323C9.84641 27.7382 10.0389 24.1827 10.6408 20.886L10.6408 20.886ZM6.99682 51.5142C6.1023 50.6355 5.28232 49.7183 4.54367 48.7692C5.36467 50.9307 6.40103 53.024 7.6459 55.0152C7.36223 53.8822 7.14594 52.713 6.99682 51.5142L6.99682 51.5142ZM20.8829 59.9079C16.9783 58.5049 13.4654 56.6568 10.4864 54.4703C10.108 54.191 9.73646 53.9072 9.37473 53.6166C9.94671 56.298 10.9096 58.766 12.2634 60.9207C13.891 62.6053 15.7076 64.1583 17.7089 65.5455C19.709 66.9327 21.7997 68.0929 23.947 69.026C26.1991 69.4915 28.5786 69.5664 31.0168 69.2781C30.4324 68.9102 29.8519 68.522 29.2775 68.1088C26.2735 65.9541 23.4275 63.1842 20.8829 59.9079L20.8829 59.9079ZM29.1574 62.083C27.5297 61.7992 25.9445 61.4428 24.4062 61.0204C26.3008 63.1387 28.3303 64.9733 30.4404 66.4876C31.6312 67.3413 32.8466 68.0928 34.0773 68.7331C35.2076 68.4652 36.3433 68.1246 37.48 67.7114C38.6069 67.3026 39.7346 66.8237 40.8544 66.2765C36.9977 65.4501 33.0416 64.0537 29.1574 62.083L29.1574 62.083ZM47.543 62.133C44.0677 62.7324 40.3935 62.9912 36.6014 62.8572L36.5544 62.8549C36.3666 62.8482 36.1796 62.8413 35.9922 62.8322C38.5777 63.7358 41.1507 64.3784 43.658 64.7599C44.9739 63.9765 46.2718 63.0979 47.543 62.133L47.543 62.133ZM61.1453 57.5445C58.3355 59.0657 55.1874 60.3054 51.7916 61.2066C50.1912 62.6484 48.5324 63.9494 46.8354 65.1027C47.464 65.1436 48.0866 65.1664 48.7026 65.1709C52.094 65.2004 55.2742 64.7009 58.0902 63.6701C59.3376 61.8697 60.3607 59.8082 61.1453 57.5445L61.1453 57.5445ZM68.3268 58.3869C64.5042 63.9018 59.4096 68.0227 53.6882 70.6404C52.7424 71.224 51.744 71.7212 50.6915 72.1275L50.6888 72.1321L50.3893 72.241C48.7517 72.8405 47.0679 73.1902 45.3613 73.3128C45.0706 73.3695 44.7787 73.4218 44.487 73.4716C37.5141 74.6545 30.1622 73.8667 23.3503 70.9515C20.7642 70.3952 18.3251 69.3667 16.1202 67.8387C13.9151 66.3085 12.0975 64.3832 10.6709 62.1536C5.55432 56.7954 2.23942 50.1838 0.903293 43.234C0.730315 42.3281 0.589303 41.4154 0.483783 40.498C0.126565 38.9678 -0.0393569 37.3943 0.00788124 35.7937L0.0103806 35.6711C0.0503081 34.5222 0.20001 33.3938 0.448443 32.2926C1.07869 26.469 3.11967 20.7384 6.67333 15.614L8.3198 16.7561C7.09255 18.5248 6.25568 20.4841 5.78224 22.5729C7.19625 21.0562 8.84027 19.6554 10.679 18.393L12.876 19.9165C12.3546 22.2528 12.0576 24.7434 11.9974 27.3363C12.9947 25.4223 14.1341 23.5288 15.416 21.6784L17.0626 22.8226C15.049 25.7266 13.4017 28.7372 12.1206 31.7682C12.4558 36.1002 13.4202 40.6275 15.0686 45.1479L15.0881 45.2025C15.9588 47.5841 16.9765 49.8455 18.1159 51.9684C19.883 53.61 21.814 55.1674 23.9 56.616C25.8338 57.9578 27.8126 59.1408 29.8083 60.167C32.0125 60.5393 34.2956 60.7731 36.638 60.8571L36.6876 60.8595C41.68 61.0343 46.4535 60.503 50.806 59.3995C53.377 57.0314 55.7869 54.2797 57.9371 51.1783L59.5835 52.3203C58.1287 54.4182 56.5574 56.364 54.8987 58.1486C57.4663 57.2199 59.8387 56.0801 61.9658 54.7587C62.0197 54.5363 62.073 54.3115 62.1235 54.0822L64.3204 55.608C64.1176 55.7464 63.912 55.8849 63.7045 56.0212C63.1104 58.2189 62.3178 60.2759 61.3389 62.149C63.4658 60.9003 65.2791 59.2679 66.6808 57.2449L68.3268 58.3869" id="path38" fill="currentColor" fill-rule="evenodd" stroke="none" />
        <path d="M38.0642 3.98945C35.33 2.96774 32.5638 2.50457 29.8746 2.67938C27.2547 3.19933 24.7012 4.01897 22.2659 5.12241C21.163 5.81262 20.1416 6.63224 19.2045 7.56767C21.4386 7.05454 23.8254 6.80707 26.3114 6.82979C27.8196 6.84341 29.3648 6.95465 30.935 7.16351C32.8811 6.04873 34.8601 5.12695 36.8416 4.40718C37.2486 4.25961 37.6566 4.12111 38.0642 3.98945L38.0642 3.98945ZM61.2117 26.6006C61.4033 27.0797 61.5893 27.5656 61.7684 28.056L61.7898 28.1105C63.0131 31.4548 63.8759 34.8106 64.399 38.0959C64.9291 36.3999 65.3459 34.7107 65.6483 33.0442C64.4264 30.8487 62.9406 28.6849 61.2117 26.6006L61.2117 26.6006ZM38.5626 2.04358C39.4403 2.53159 40.3137 3.09921 41.1798 3.74641C42.0928 3.45224 43.0026 3.22378 43.9052 3.06808C42.1338 2.52125 40.3473 2.1786 38.5626 2.04362L38.5626 2.04358ZM52.8935 15.9058C52.5168 15.7331 52.1373 15.5664 51.7535 15.4028C51.9157 15.5513 52.0787 15.6997 52.241 15.8513C52.6852 16.2633 53.1234 16.6814 53.5549 17.1057C53.337 16.6996 53.1163 16.2997 52.8935 15.9058L52.8935 15.9058ZM66.096 23.4243C65.2429 22.6297 64.3218 21.8668 63.3368 21.1448C61.2435 19.6077 58.8685 18.2454 56.2688 17.1011C57.0456 18.2772 57.7849 19.5078 58.4816 20.786C61.5034 23.6264 64.055 26.7074 66.0869 29.8837C66.2059 28.6418 66.2601 27.418 66.2476 26.2192C66.2386 25.2701 66.1873 24.3393 66.096 23.4243L66.096 23.4243ZM71.5414 44.4373C71.984 43.4451 72.3307 42.4234 72.5743 41.3745C72.8377 38.8725 72.8253 36.3545 72.5461 33.8616C71.8454 30.9418 70.3597 28.1718 68.2362 25.6653C68.2407 25.8424 68.2442 26.0172 68.246 26.1966C68.2674 28.3035 68.0962 30.4809 67.7344 32.6946C68.4827 34.0932 69.1291 35.5008 69.6688 36.9108C70.6399 39.4401 71.272 41.9716 71.5415 44.4373L71.5414 44.4373ZM64.3582 53.1149C66.4859 51.5007 68.2832 49.6821 69.6785 47.7022C69.7683 44.4805 69.1204 41.0589 67.8018 37.6237C67.5809 37.0493 67.3407 36.4726 67.0836 35.8981C66.5446 38.1118 65.8185 40.346 64.906 42.5687C65.1526 46.2628 64.961 49.8183 64.3582 53.1149L64.3582 53.1149ZM68.0023 22.4867C68.8976 23.3653 69.7168 24.2803 70.4554 25.2316C69.6344 23.0679 68.5981 20.9745 67.3541 18.9857C67.6378 20.1163 67.854 21.2879 68.0023 22.4867L68.0023 22.4867ZM54.1154 14.0929C58.0208 15.496 61.5337 17.3441 64.5126 19.5306C64.8923 19.8098 65.2626 20.0936 65.6243 20.3819C65.0536 17.7006 64.0896 15.2349 62.737 13.0803C61.1089 11.3955 59.2915 9.84258 57.2912 8.45533C55.2911 7.06809 53.2004 5.90789 51.053 4.97475C48.8001 4.50929 46.4205 4.43438 43.9824 4.72274C44.5675 5.09053 45.1473 5.47877 45.7219 5.89201C48.7257 8.04668 51.5717 10.8143 54.1154 14.0929L54.1154 14.0929ZM45.8425 11.9156C47.4695 12.2017 49.0544 12.5581 50.5929 12.9804C48.6982 10.8621 46.6696 9.02754 44.5596 7.51317C43.3687 6.65949 42.1524 5.90797 40.9218 5.2677C39.7923 5.53564 38.6557 5.8762 37.52 6.2894C36.3921 6.6981 35.2642 7.17716 34.1446 7.7243C38.0012 8.54849 41.9575 9.94709 45.8425 11.9155L45.8425 11.9156ZM27.4561 11.8678C30.9317 11.2685 34.6066 11.0096 38.3978 11.1436L38.4414 11.1459C38.6302 11.1527 38.8191 11.1595 39.0077 11.1686C36.4224 10.2627 33.8486 9.62238 31.3403 9.24097C30.0253 10.0243 28.7277 10.9029 27.4561 11.8678L27.4561 11.8678ZM13.8546 16.4564C16.6634 14.9352 19.8118 13.6956 23.2075 12.7942C24.8078 11.3525 26.4677 10.0515 28.1645 8.8981C27.535 8.85723 26.9128 8.83452 26.2965 8.82997C22.906 8.80046 19.725 9.29993 16.9099 10.3307C15.6615 12.1312 14.6377 14.1928 13.8546 16.4564L13.8546 16.4564ZM58.879 6.1623C61.085 7.69257 62.9008 9.61789 64.3292 11.8475C69.4456 17.2058 72.7608 23.8173 74.0948 30.7648C74.2697 31.6731 74.4088 32.5858 74.5163 33.5008C74.8734 35.0334 75.0385 36.6067 74.9924 38.2074L74.9888 38.33C74.9488 39.4789 74.7999 40.6073 74.5516 41.7084C73.9302 47.4481 71.9373 53.0994 68.4783 58.1669L68.3268 58.3869L66.6805 57.2451L66.8286 57.0272C67.9738 55.3174 68.763 53.4309 69.2176 51.4282C67.8615 52.8838 66.2939 54.2324 64.5445 55.4514L64.3201 55.6081L62.1231 54.0826L62.1808 53.8214C62.6667 51.5622 62.9444 49.16 63.0017 46.6648C62.0406 48.5107 60.9468 50.3362 59.7197 52.123L59.583 52.3205L57.9367 51.1785L58.0695 50.9854C60.0235 48.1405 61.6257 45.1958 62.8788 42.2329C62.5425 37.8918 61.5742 33.3509 59.9199 28.8213L59.9111 28.7986C59.0404 26.417 58.0226 24.1556 56.8841 22.0327C55.1172 20.3912 53.1852 18.8337 51.0992 17.3851C49.1646 16.0432 47.1874 14.8603 45.1916 13.8341C42.9878 13.4618 40.7036 13.2256 38.3622 13.1439L38.3117 13.1416C33.32 12.9668 28.5467 13.4981 24.1934 14.6015C21.647 16.9469 19.2595 19.6691 17.1253 22.732L17.0625 22.8228L15.416 21.6785L15.4754 21.5945C16.9135 19.5284 18.4651 17.6121 20.1009 15.8525C17.5341 16.7812 15.1617 17.9209 13.0346 19.2423C12.9876 19.4331 12.9424 19.6238 12.8989 19.8168L12.8759 19.9167L10.6788 18.3932L10.7587 18.3387C10.9351 18.2184 11.1151 18.098 11.2959 17.98C11.89 15.7822 12.6817 13.7252 13.6605 11.852C11.5584 13.0872 9.76123 14.6969 8.36673 16.6881L8.31969 16.7562L6.67328 15.6142L6.71656 15.5506C10.5351 10.0697 15.6121 5.96934 21.311 3.35831C22.257 2.77706 23.2562 2.27985 24.3078 1.87345L24.3105 1.8689L24.611 1.75993C26.2486 1.16051 27.9313 0.808598 29.6388 0.688268C29.9289 0.631495 30.2205 0.579293 30.5122 0.529355C37.4865 -0.655822 44.838 0.134278 51.6488 3.04954C54.2349 3.6058 56.6742 4.63432 58.879 6.16231" id="path40" fill="currentColor" fill-rule="evenodd" stroke="none" />
      </g>
      <g id="BOLA-INTERNA" transform="translate(17.009277 16.332825)">
        <path d="M11.5737 39.9152L11.5698 39.9061C11.43 39.7745 11.27 39.6246 11.0917 39.4521C10.6583 39.0206 10.2255 38.5802 9.8755 38.2123L9.8714 38.2123C10.4298 38.8253 10.9972 39.393 11.5737 39.9152L11.5737 39.9152ZM9.25885 20.8457C9.47327 20.4665 9.69673 20.294 9.93614 20.1963C10.0398 20.1554 10.1499 20.1146 10.2579 20.1055C10.7829 19.9738 11.3885 19.9102 12.1482 18.8136C12.9551 17.7147 12.9417 16.9201 12.987 16.2003C12.9932 16.0414 13.0108 15.8871 13.0454 15.7258C13.1049 15.3762 13.2388 15.0175 13.556 14.627L13.556 14.627C13.5738 14.6043 13.5907 14.5816 13.6093 14.5588C14.4206 13.5985 15.7276 13.3737 16.5732 14.0821C17.4698 14.8472 17.5103 16.3229 16.6355 17.3492C16.6158 17.3742 16.5945 17.3992 16.5795 17.4128L16.5805 17.4128C16.2318 17.8328 15.8834 18.0145 15.5253 18.1212C15.3745 18.1666 15.2201 18.2029 15.0677 18.2165C14.3709 18.3414 13.6368 18.4141 12.8071 19.5289C12.0277 20.6232 12.0826 21.4588 12.0959 22.2329C12.1082 22.3987 12.1067 22.578 12.0923 22.7416C12.0719 23.1252 11.9904 23.5112 11.7341 23.8926C11.7226 23.9221 11.7094 23.9358 11.697 23.9653C11.1038 24.8939 10.0798 24.9053 9.41564 24.047C8.81908 23.2093 8.73745 21.8424 9.22586 20.907C9.23478 20.8911 9.24625 20.8775 9.25885 20.8457L9.25885 20.8457ZM9.0104 29.8662C9.16817 29.7436 9.40676 29.739 9.6816 29.7776C9.80029 29.789 9.91739 29.8049 10.0469 29.8344C10.6462 29.9366 11.3342 30.0706 11.9672 29.5801C12.6802 29.0103 12.5081 28.4154 12.4017 27.8387C12.3724 27.7115 12.3592 27.5844 12.3635 27.4595C12.3494 27.1553 12.4275 26.8647 12.7245 26.5718C12.7448 26.5581 12.7528 26.5399 12.7741 26.5264C13.5304 25.7567 15.067 25.7953 16.137 26.6172C17.1921 27.4028 17.3569 28.597 16.5527 29.2736C16.5369 29.2872 16.5201 29.3008 16.5032 29.3145L16.5032 29.3145C16.1964 29.5711 15.8532 29.6573 15.4969 29.6891C15.3479 29.705 15.2007 29.7095 15.0394 29.7004C14.331 29.6891 13.5535 29.6164 12.8388 30.1659C12.1643 30.6177 12.3619 31.0491 12.4992 31.4055C12.5348 31.4782 12.5533 31.5463 12.5533 31.6054C12.588 31.7529 12.5703 31.8755 12.3672 31.9482C12.3477 31.9482 12.3449 31.955 12.3254 31.9527C11.8778 32.0731 10.8457 31.7484 9.96447 31.258C9.08944 30.7176 8.62297 30.1137 8.98126 29.882C8.98475 29.873 9.00596 29.8753 9.0104 29.8662L9.0104 29.8662ZM6.13439 8.56042C6.43946 8.24254 6.7072 8.06317 6.96775 7.93149C7.08033 7.87247 7.19749 7.82026 7.31885 7.77483C7.8686 7.56369 8.47421 7.38888 9.38024 6.58283C10.3068 5.82455 10.3909 5.43174 10.5319 5.08666C10.5575 5.01624 10.6012 4.94361 10.6473 4.87326C10.7518 4.7166 10.9166 4.55313 11.2491 4.34876L11.2491 4.34876C11.2653 4.33968 11.2802 4.32832 11.2961 4.31924C12.1128 3.86289 13.2318 3.60631 13.8807 3.75163C14.5891 3.97186 14.5295 4.62575 13.6963 5.19791C13.6662 5.21603 13.6519 5.22739 13.6378 5.23878C13.2955 5.48851 12.9667 5.61794 12.6235 5.71101C12.4771 5.75642 12.3434 5.78595 12.19 5.81548C11.5472 5.95847 10.853 6.09697 9.91755 6.8803C8.99187 7.71809 8.93 8.26299 8.81646 8.81697C8.79599 8.94187 8.77289 9.06443 8.73475 9.18933C8.64626 9.49129 8.50441 9.79781 8.15837 10.1656C8.14873 10.177 8.12831 10.1997 8.10719 10.2224C7.29327 11.1306 6.13618 11.4189 5.57857 10.8921C5.10231 10.4267 5.34885 9.4232 6.08459 8.61262C6.09713 8.599 6.10872 8.58539 6.13439 8.56042L6.13439 8.56042ZM1.5391 13.0989L1.54524 13.0967C1.64376 12.8923 1.79901 12.5904 2.06325 12.0886C2.57728 11.21 2.80966 10.7763 3.03667 10.4062C3.0783 10.3449 3.1208 10.2836 3.16334 10.2201L3.16334 10.2178C3.50739 9.72058 3.88063 9.23922 4.28047 8.77151C4.60686 8.41054 4.86566 8.19027 4.94551 8.24026C5.14318 8.37649 4.79823 9.17793 4.12454 9.99075C4.11385 10.0044 4.10227 10.0203 4.09079 10.0339L4.09079 10.0339C3.83266 10.3654 3.62091 10.572 3.43999 10.715C3.35668 10.7899 3.28142 10.849 3.21485 10.8944C2.90186 11.1532 2.61804 11.3916 2.07731 12.2907C1.59221 13.2034 1.4238 13.7301 1.26607 14.2546C1.2377 14.3659 1.20751 14.4749 1.16849 14.602C1.0931 14.8745 1.00288 15.1628 0.861835 15.5125C0.854595 15.5306 0.848429 15.5465 0.841419 15.5647C0.603722 16.2231 0.433544 16.5501 0.420229 16.466L0.417664 16.466C0.68088 15.315 1.05319 14.1865 1.5391 13.099L1.5391 13.0989ZM2.77864 19.2043C2.99309 18.825 3.21752 18.6524 3.45589 18.5549C3.55958 18.5117 3.66874 18.4731 3.77778 18.464C4.30272 18.3323 4.90829 18.2665 5.66788 17.1722C6.47484 16.0733 6.46077 15.2763 6.50685 14.5566C6.51205 14.4 6.52975 14.2455 6.56545 14.0844C6.62461 13.7347 6.75768 13.3737 7.0752 12.9832L7.0752 12.9855C7.09286 12.9605 7.11058 12.9378 7.12915 12.9173C7.94031 11.9547 9.2473 11.7322 10.0933 12.4383C10.9886 13.2034 11.0301 14.6815 10.1551 15.7077C10.1357 15.7304 10.1143 15.7554 10.0994 15.7713L10.0994 15.7713C9.75186 16.189 9.40409 16.373 9.04416 16.4774C8.89438 16.5251 8.73926 16.5614 8.58681 16.5751C7.89066 16.6999 7.15759 16.7703 6.32692 17.8874C5.54661 18.9817 5.60238 19.8172 5.61573 20.5915C5.62827 20.7572 5.62642 20.9343 5.61214 21.1001C5.59164 21.4815 5.51022 21.8674 5.25397 22.2512C5.24165 22.2784 5.22923 22.2943 5.21674 22.3215C4.62364 23.2502 3.59955 23.2638 2.93542 22.4033C2.33873 21.5678 2.25819 20.1987 2.74498 19.2655C2.75455 19.2496 2.76703 19.2338 2.77864 19.2043L2.77864 19.2043ZM4.01442 15.3648C4.68222 14.4 4.7823 13.1285 4.27251 12.5677C3.83626 12.0727 3.05534 12.4247 2.49216 13.3033C1.97173 14.1978 1.79532 15.3376 2.12431 15.912C2.53485 16.541 3.393 16.3162 4.01442 15.3648L4.01442 15.3648ZM18.3181 29.6278C18.623 29.2419 18.9716 29.1011 19.3414 29.033C19.5001 28.9944 19.6684 28.983 19.8341 28.9807C20.6152 28.933 21.4931 28.9512 22.446 27.841C23.4277 26.7035 23.3088 25.7772 23.2724 24.9258C23.252 24.7373 23.253 24.5534 23.2724 24.3695C23.3017 23.9426 23.4213 23.5226 23.7947 23.089C23.8142 23.064 23.8327 23.0413 23.8533 23.0163C24.7832 21.9424 26.4617 21.8788 27.6036 22.8801C28.7427 23.8859 28.9076 25.5683 27.9733 26.6422C27.9528 26.6649 27.9351 26.6853 27.9138 26.7081L27.9138 26.7081C27.5344 27.1395 27.1381 27.3165 26.7213 27.4029C26.544 27.4459 26.3579 27.471 26.1743 27.4777C25.3277 27.555 24.4055 27.564 23.4125 28.6947C22.4548 29.7981 22.5907 30.6722 22.6428 31.4555C22.6677 31.6258 22.673 31.7938 22.6617 31.9596C22.6535 32.3433 22.5515 32.7043 22.2228 33.0676L22.2236 33.0676C22.2023 33.0834 22.1908 33.1062 22.1696 33.1221C21.3786 33.9758 19.9051 33.9076 18.8385 32.9836C17.8004 32.0504 17.536 30.5882 18.2702 29.6869C18.2844 29.6642 18.2977 29.6392 18.3181 29.6279L18.3181 29.6278ZM20.9681 36.0667C21.3093 35.7579 21.6774 35.6262 22.0533 35.5536C22.2121 35.5172 22.3874 35.4923 22.5524 35.4809C23.3157 35.3901 24.1439 35.3356 25.129 34.4047C26.1137 33.4262 26.0848 32.6838 26.104 31.9799C26.0971 31.8255 26.1104 31.6665 26.1468 31.5054C26.1928 31.1375 26.3258 30.7652 26.6903 30.3657L26.6911 30.3657C26.7114 30.3407 26.7328 30.3157 26.7462 30.2997C27.6452 29.2826 29.1036 29.1282 29.9787 29.9184C30.789 30.6676 30.7466 32.0003 29.9113 32.9403C29.8919 32.9607 29.8713 32.9812 29.8519 33.0016L29.8519 33.0016C29.5096 33.3694 29.1745 33.551 28.827 33.6646C28.6842 33.7145 28.5352 33.7508 28.3792 33.7781C27.6771 33.9211 26.8808 34.021 25.9092 34.9723C24.9329 35.8783 24.9506 36.489 24.9063 37.0271C24.8984 37.1429 24.8878 37.2519 24.8443 37.3654C24.7804 37.6174 24.6421 37.8626 24.2981 38.1282C24.2849 38.1419 24.2715 38.1532 24.2422 38.1692C23.4035 38.7798 22.0292 38.8844 21.1259 38.4007C20.1924 37.8535 20.0673 36.8273 20.9026 36.1121C20.9283 36.0962 20.9413 36.0826 20.9681 36.0667L20.9681 36.0667ZM19.967 25.1754C20.8723 24.2423 20.7711 22.771 19.7125 21.8878C18.6291 20.9728 16.9915 21.0364 16.0837 22.0309C15.199 22.9936 15.3727 24.4625 16.4587 25.3185C17.5227 26.1358 19.0769 26.0722 19.967 25.1754L19.967 25.1754ZM28.124 39.5473C28.4475 39.3589 28.7179 39.2295 28.9936 39.1114C29.1133 39.057 29.2179 39.0138 29.3234 38.9707C29.8226 38.7482 30.3192 38.5165 31.1518 37.9104C31.9764 37.236 32.1802 36.9023 32.3858 36.5481C32.4187 36.4754 32.4666 36.3891 32.5287 36.2961C32.6411 36.094 32.8141 35.8533 33.1031 35.5536C33.1155 35.54 33.1402 35.515 33.1527 35.4992C33.8602 34.7204 34.6255 34.2685 34.7912 34.4752C34.8781 34.5705 34.5588 35.0268 34.1042 35.5445C33.8434 35.8283 33.5739 36.1008 33.2991 36.3641L33.2955 36.3664L33.2928 36.371L33.2892 36.3733L33.2858 36.3755L33.283 36.3801C33.2389 36.4209 33.1944 36.4618 33.1499 36.5027C33.0666 36.5776 32.9968 36.6412 32.9249 36.7025C32.5722 36.984 32.1863 37.2542 31.3778 37.899C30.8289 38.2963 30.5392 38.5075 30.3342 38.6415L30.3342 38.6459C29.3599 39.2431 28.336 39.7427 27.2764 40.1399L27.2746 40.1377C27.1176 40.1581 27.4102 39.9265 28.0743 39.5747C28.0911 39.5655 28.107 39.5564 28.124 39.5473L28.124 39.5473ZM0 22.1399C0 22.0446 0.00959015 21.8493 0.0296783 21.4429C0.138823 20.6006 0.135159 19.9671 0.158911 19.3723C0.163799 19.2564 0.172417 19.1225 0.183899 19.009C0.214588 18.7047 0.262407 18.4028 0.356346 18.0713C0.360985 18.0531 0.36692 18.0327 0.371492 18.0168C0.660906 17.1654 1.11676 16.9315 1.41666 17.5286C1.80471 18.1961 1.80007 19.5016 1.38606 20.3917C1.37849 20.4075 1.36984 20.4258 1.36205 20.4439L1.36205 20.4439C1.2166 20.7776 1.07291 20.9343 0.931187 21.0024C0.873526 21.0547 0.81613 21.0705 0.760513 21.0864C0.526794 21.1522 0.315132 21.1818 0.171448 22.0242C0.123621 22.8165 0.206984 23.4364 0.294022 23.9971C0.319057 24.1311 0.339174 24.2469 0.359266 24.3627C0.408989 24.6329 0.458874 24.903 0.499094 25.1347C0.503717 25.1551 0.502968 25.1551 0.50658 25.1733C0.515306 25.2119 0.528767 25.2687 0.538273 25.3072L0.538273 25.3094C0.26639 24.2605 0.0860806 23.2025 0 22.1399L0 22.1399ZM2.71214 26.91C3.02869 26.1767 2.7954 24.8257 2.19162 23.9653C1.65715 23.1411 1.06758 23.1434 0.86977 23.8949C0.742905 24.601 0.980579 25.7884 1.39112 26.583C1.87598 27.4186 2.46743 27.6003 2.71214 26.91L2.71214 26.91ZM2.78832 29.8185C2.84136 29.6232 2.95148 29.5733 3.09943 29.587C3.15891 29.5801 3.22795 29.5892 3.30413 29.6164C3.67209 29.705 4.12447 29.8457 4.47895 29.1124C4.92311 28.3269 4.74771 27.5594 4.64044 26.8556C4.60929 26.6966 4.59524 26.5469 4.59164 26.3969C4.5729 26.0383 4.61292 25.6818 4.82405 25.3435L4.82405 25.3435C4.83471 25.3253 4.84506 25.3072 4.85657 25.2868C5.41095 24.3831 6.60963 24.3876 7.52718 25.3503C8.48303 26.3062 8.72148 27.8228 8.07157 28.6901C8.06178 28.7128 8.04309 28.7241 8.03338 28.7469C7.78533 29.0806 7.50164 29.1851 7.20877 29.2237C7.08576 29.2463 6.95802 29.2509 6.82863 29.2373C6.2469 29.2078 5.63711 29.117 5.17055 29.9026C4.77426 30.5995 5.00038 31.2671 5.18125 31.8506C5.22735 31.9754 5.25843 32.0912 5.28592 32.207C5.36039 32.4772 5.38781 32.7156 5.28677 32.8882C5.29117 32.9085 5.28406 32.9154 5.27708 32.92C5.09524 33.3082 4.45068 32.9381 3.79014 32.123C3.18917 31.3102 2.73246 30.3248 2.78832 29.8616C2.78557 29.8412 2.79191 29.839 2.78832 29.8185L2.78832 29.8185ZM10.4895 37.4631C10.6463 37.3382 10.8848 37.3359 11.1597 37.3722C11.2783 37.3859 11.3955 37.3995 11.525 37.4313C12.1242 37.5312 12.8132 37.6674 13.4453 37.177C14.1581 36.6071 13.9862 36.0122 13.8798 35.4356C13.8504 35.3084 13.8382 35.1813 13.8417 35.0541C13.8275 34.7522 13.9062 34.4592 14.2024 34.1686L14.2024 34.1686C14.2238 34.155 14.2308 34.1368 14.2513 34.1233C15.0093 33.3535 16.5448 33.3899 17.6149 34.2141C18.6702 34.9996 18.834 36.1939 18.0317 36.8705C18.0149 36.8841 17.9981 36.8977 17.982 36.9114C17.6754 37.1679 17.3313 37.2542 16.9749 37.2837C16.8268 37.3019 16.6786 37.3064 16.5173 37.2974C15.809 37.286 15.0314 37.2133 14.3169 37.7628C13.6421 38.2146 13.8398 38.646 13.9773 39.0024C14.0137 39.0751 14.0314 39.1432 14.0322 39.2022C14.0658 39.3476 14.0482 39.4724 13.8462 39.5451C13.8257 39.5451 13.824 39.5496 13.8034 39.5496C13.3559 39.6677 12.3239 39.3453 11.4426 38.8549C10.5673 38.3145 10.1011 37.7106 10.4593 37.4767C10.4636 37.4699 10.4849 37.4722 10.4895 37.4631L10.4895 37.4631ZM10.9496 35.3447C11.524 34.7612 11.212 33.5669 10.2012 32.6996C9.19671 31.8005 7.96175 31.6393 7.47149 32.3C7.0352 32.888 7.4465 33.9983 8.35012 34.8134C9.27475 35.5967 10.422 35.8509 10.9496 35.3447L10.9496 35.3447ZM19.9362 40.6643C20.648 40.3669 20.5726 39.7765 19.6905 39.3543C18.7614 38.8662 17.4014 38.8139 16.7214 39.2295C16.0732 39.5655 16.3321 40.1331 17.2187 40.5054C18.0742 40.8119 19.2578 40.8869 19.9362 40.6643L19.9362 40.6643ZM18.7684 41.2411C19.022 41.2479 19.2748 41.257 19.5469 41.2661C19.663 41.2683 19.7986 41.2728 19.9158 41.2774C20.4972 41.282 21.1163 41.2752 21.8734 41.1253C22.6828 40.8801 22.6864 40.6804 22.7404 40.4533C22.7306 40.4011 22.7581 40.342 22.7846 40.2853C22.8326 40.1445 22.9693 39.9901 23.2989 39.8085C23.3149 39.7994 23.331 39.7881 23.3468 39.779C24.1696 39.2771 25.4542 39.0955 26.1591 39.3658C26.7869 39.5633 26.5946 40.0242 25.7938 40.4034C25.7761 40.4124 25.7593 40.4192 25.7416 40.426C25.4267 40.5578 25.1538 40.6372 24.8575 40.7076C24.7282 40.737 24.6165 40.7599 24.4855 40.7825C23.9026 40.8847 23.2785 40.9664 22.4817 41.1776C22.0659 41.2525 21.8761 41.2888 21.7804 41.3001C20.7306 41.3637 19.6711 41.3387 18.6125 41.2298L18.6125 41.2298C18.6515 41.2343 18.6903 41.2365 18.7294 41.2389C18.749 41.2389 18.7684 41.2411 18.7684 41.2411L18.7684 41.2411ZM5.30726 33.9394L5.30581 33.9337C4.9372 33.5807 4.49429 33.143 4.05844 32.7081C3.90293 32.5472 3.74701 32.3834 3.61511 32.2422L3.60498 32.2366C4.13882 32.8183 4.70537 33.3831 5.30726 33.9394L5.30726 33.9394ZM6.56169 35.6627C6.43668 35.531 6.25392 35.3334 6.09013 35.1404C6.02632 35.0655 5.96314 34.986 5.91708 34.9202C5.80178 34.7545 5.7389 34.6227 5.77252 34.5365L5.77349 34.5365C5.76273 34.5184 5.76635 34.5161 5.77084 34.5115C5.90034 34.2323 6.72131 34.5955 7.56623 35.3698C8.45365 36.1281 8.929 36.9137 8.6841 37.0908C8.68163 37.0953 8.67788 37.0998 8.65934 37.093C8.59458 37.1475 8.44028 37.0908 8.26215 36.9977C8.1913 36.9591 8.12122 36.9205 8.03692 36.866C7.81972 36.7229 7.59377 36.5595 7.44823 36.4505C7.32228 36.3461 7.19742 36.2393 7.07325 36.1304C6.89948 35.976 6.72916 35.8194 6.56169 35.6627" id="path42" fill="currentColor" fill-rule="evenodd" stroke="none" />
        <path d="M32.8139 31.1604C32.4689 31.5282 32.3271 31.8324 32.2395 32.1367C32.2004 32.2616 32.1666 32.3932 32.1579 32.509C32.0453 33.063 31.9699 33.617 31.0453 34.4547C30.1248 35.2313 29.4299 35.3675 28.7719 35.5173C28.6354 35.54 28.4857 35.5763 28.3393 35.6195C28.0122 35.708 27.6834 35.8374 27.341 36.0895L27.341 36.0895C27.3109 36.1053 27.2966 36.1167 27.2825 36.128C26.4332 36.7048 26.3914 37.3564 27.0998 37.5789C27.7319 37.7311 28.8685 37.4676 29.6835 37.0113C29.6992 37.0022 29.7154 36.9931 29.7304 36.9817C30.0629 36.7773 30.2276 36.6139 30.3324 36.4573C30.3786 36.3869 30.4061 36.3211 30.4308 36.2529C30.5718 35.9055 30.6711 35.5036 31.5823 34.7567C32.5019 33.9394 33.1084 33.7645 33.6571 33.5557C33.7787 33.508 33.8823 33.4671 34.0084 33.399C34.2697 33.2674 34.5367 33.088 34.8424 32.7678C34.8673 32.7429 34.88 32.7292 34.8921 32.7179C35.6273 31.9051 35.8719 30.9038 35.3958 30.4338C34.8363 29.9071 33.6793 30.1954 32.8655 31.1036C32.845 31.1263 32.8238 31.149 32.8139 31.1604L32.8139 31.1604ZM10.4876 2.78671L10.4876 2.79351C10.2987 2.9184 10.022 3.11365 9.56357 3.44512C8.7686 4.07634 8.3729 4.36463 8.03974 4.64168C7.98293 4.69161 7.92785 4.74155 7.87194 4.79379L7.87035 4.79379C7.42785 5.20473 7.00215 5.64065 6.59623 6.10381C6.28591 6.47621 6.10227 6.76455 6.1627 6.83718C6.32396 7.01654 7.06621 6.56474 7.7762 5.7837C7.78961 5.77005 7.80206 5.75643 7.81363 5.74281L7.81363 5.74281C8.1044 5.44312 8.28069 5.20245 8.39511 5.00493C8.4589 4.90954 8.50773 4.82782 8.54307 4.75517C8.75513 4.40778 8.95185 4.09221 9.76408 3.43151C10.6002 2.82531 11.0932 2.58692 11.5904 2.35761C11.6951 2.31449 11.7988 2.26906 11.9184 2.21458C12.1765 2.1033 12.4479 1.97389 12.7732 1.78545C12.7892 1.77637 12.8061 1.7673 12.822 1.7582C13.4392 1.43352 13.7379 1.21783 13.6536 1.21783L13.6528 1.21558C12.5533 1.63332 11.4938 2.15555 10.4876 2.78672L10.4876 2.78671ZM19.1832 0.0349846C19.0884 0.0485992 18.8977 0.0826416 18.5006 0.155315C17.685 0.370997 17.0598 0.452786 16.4773 0.554909C16.3647 0.57308 16.2345 0.600346 16.1228 0.627569C15.8275 0.69569 15.5358 0.779697 15.221 0.911381C15.2033 0.918171 15.1856 0.925028 15.1689 0.934042C14.368 1.31322 14.1926 1.76506 14.8205 1.96486C15.5252 2.23052 16.8098 2.05111 17.6334 1.54938C17.6494 1.54028 17.6664 1.53123 17.6822 1.51983C17.9935 1.34048 18.1301 1.18613 18.178 1.04759C18.2232 0.988585 18.232 0.93182 18.2409 0.877321C18.2763 0.65255 18.2808 0.452786 19.0893 0.209827C19.866 0.0576801 20.4849 0.0508976 21.0468 0.0554237C21.1836 0.0599747 21.2987 0.0645237 21.4167 0.066803C21.6888 0.0758724 21.9602 0.0872097 22.1941 0.0917606C22.2138 0.094059 22.2138 0.094059 22.2323 0.094059C22.2724 0.0963268 22.3306 0.100845 22.3688 0.105391L22.3688 0.105391C21.3049 -0.00585175 20.2393 -0.0285378 19.1832 0.0350018L19.1832 0.0349846ZM24.244 2.09651C23.5649 2.51197 22.2039 2.45975 21.274 1.97615C20.391 1.55384 20.3147 0.963537 21.0265 0.666105C21.7049 0.443617 22.9079 0.520777 23.7449 0.822773C24.6314 1.19509 24.8923 1.76044 24.244 2.09645L24.244 2.09651ZM16.6646 3.20225C16.3205 3.46561 16.1823 3.7131 16.1182 3.96284C16.09 4.07408 16.0651 4.18759 16.0713 4.2966C16.013 4.83923 16.0308 5.44996 15.0536 6.35585C14.081 7.30945 13.2964 7.40254 12.5932 7.54329C12.4374 7.57053 12.2881 7.60915 12.134 7.66593C11.7988 7.77262 11.4619 7.95199 11.1205 8.32434L11.1205 8.32434C11.1001 8.34253 11.0806 8.36297 11.0611 8.38565C10.2243 9.32336 10.1799 10.6584 10.9904 11.4053C11.8643 12.1955 13.3229 12.0388 14.2158 11.0284C14.2369 11.0058 14.2583 10.9808 14.2708 10.9626L14.2717 10.9626C14.6359 10.5607 14.7698 10.1884 14.8247 9.81599C14.8523 9.65937 14.8665 9.50268 14.8586 9.34605C14.8885 8.63539 14.8595 7.89522 15.847 6.91667C16.8195 5.99036 17.6494 5.93586 18.413 5.84502C18.5777 5.83368 18.7533 5.8087 18.913 5.77238C19.2887 5.69975 19.6577 5.56577 19.9989 5.25927C20.0255 5.24341 20.0381 5.22749 20.0646 5.21161C20.899 4.4964 20.7739 3.47244 19.8376 2.92754C18.9342 2.44391 17.5758 2.54834 16.7213 3.1591C16.7069 3.17275 16.6945 3.18411 16.6646 3.20225L16.6646 3.20225ZM22.2058 11.8912C21.2989 12.8834 19.6569 12.9469 18.5769 12.0319C17.5167 11.151 17.4154 9.68203 18.3216 8.74662C19.2126 7.85208 20.7697 7.78625 21.8334 8.6036C22.9124 9.45728 23.0889 10.9285 22.2058 11.8912L22.2058 11.8912ZM27.1193 1.78318C26.9341 1.86037 26.8985 1.97616 26.9332 2.12373C26.9341 2.18279 26.9518 2.25091 26.9872 2.32355C27.1254 2.67776 27.3241 3.11139 26.6503 3.5632C25.9355 4.11266 25.1589 4.03996 24.4497 4.02864C24.2884 4.01953 24.1413 4.02409 23.9932 4.03998C23.6358 4.07181 23.2928 4.15806 22.986 4.41464L22.9851 4.41464C22.9692 4.426 22.9524 4.44187 22.9363 4.45322C22.1198 5.12984 22.2864 6.3241 23.3558 7.10966C24.4268 7.93382 25.9517 7.96789 26.7188 7.20274C26.7399 7.18912 26.7488 7.17095 26.7682 7.15734C27.0645 6.86445 27.1299 6.56703 27.1282 6.2696C27.1319 6.1447 27.1203 6.01756 27.0891 5.89041C26.983 5.31372 26.81 4.71659 27.522 4.1467C28.1542 3.65628 28.842 3.79251 29.4423 3.8947C29.5718 3.92422 29.688 3.9401 29.8067 3.95146C30.0824 3.98781 30.32 3.98325 30.477 3.86064C30.4982 3.86289 30.5025 3.85381 30.5071 3.84699C30.8652 3.61316 30.415 3.01827 29.5221 2.4711C28.6398 1.98068 27.6078 1.65829 27.1611 1.77631C27.1416 1.77631 27.1388 1.78315 27.1193 1.78315L27.1193 1.78318ZM33.3805 4.7574C33.2342 4.65298 33.0144 4.49404 32.8033 4.35782C32.719 4.30332 32.6331 4.25337 32.5613 4.21478C32.3831 4.12394 32.2447 4.07856 32.1651 4.12394L32.1651 4.12394C32.1464 4.11488 32.1438 4.11942 32.141 4.12394C31.8829 4.29197 32.351 5.06168 33.2271 5.79954C34.0942 6.58281 34.9303 6.95065 35.073 6.68274C35.0765 6.67819 35.0799 6.67592 35.0704 6.65777C35.1171 6.58735 35.0402 6.43983 34.9232 6.27408C34.8762 6.21049 34.8275 6.14468 34.7635 6.06746C34.5935 5.86993 34.4018 5.66561 34.2759 5.53621C34.1554 5.42494 34.0331 5.31368 33.9088 5.2047C33.7342 5.05256 33.5576 4.90502 33.3805 4.75743L33.3805 4.7574ZM33.6572 9.17804C33.1606 9.82736 31.9416 9.67755 30.953 8.78526C29.9325 7.9066 29.6071 6.69646 30.1905 6.11751C30.7117 5.60436 31.8608 5.86546 32.7838 6.6556C33.6809 7.47294 34.0854 8.58321 33.6572 9.17804L33.6572 9.17804ZM26.1751 9.94771C25.8373 10.3041 25.745 10.6719 25.7273 11.0489C25.7122 11.2123 25.7221 11.3826 25.7424 11.5484C25.8002 12.3339 25.9357 13.2058 24.9729 14.3047C23.9835 15.4376 23.0562 15.4444 22.2121 15.5216C22.0249 15.5261 21.8432 15.5511 21.6668 15.5965C21.2492 15.6828 20.8511 15.8599 20.4734 16.2913L20.4734 16.2913C20.4512 16.314 20.4325 16.3344 20.4106 16.3571C19.4777 17.431 19.6426 19.1112 20.7827 20.117C21.9247 21.1183 23.6049 21.0547 24.5349 19.9785C24.5544 19.9558 24.5729 19.9354 24.5925 19.9104L24.5925 19.9104C24.9666 19.4744 25.0863 19.0544 25.1166 18.6275C25.136 18.4459 25.1351 18.2575 25.1157 18.0736C25.0775 17.2177 24.9622 16.2959 25.942 15.1561C26.8994 14.0504 27.7789 14.0686 28.5583 14.0164C28.7285 14.0186 28.8951 14.0004 29.0556 13.9664C29.4326 13.9074 29.7746 13.7552 30.0867 13.3783C30.101 13.3556 30.1205 13.342 30.1338 13.3193C30.8679 12.4157 30.6029 10.9558 29.5496 10.0158C28.4909 9.10537 27.0147 9.03952 26.2266 9.89319C26.2062 9.9091 26.1856 9.925 26.1751 9.94771L26.1751 9.94771ZM32.5065 21.2135C31.7075 22.2421 30.2472 22.3374 29.2347 21.402C28.1877 20.4439 28.0307 18.8024 28.8863 17.7647C29.7163 16.7521 31.1853 16.7272 32.1755 17.6966C33.1233 18.6457 33.2688 20.2055 32.5065 21.2135L32.5065 21.2135ZM35.6821 8.43099C35.5817 8.60579 35.6093 8.84417 35.6831 9.11437C35.7105 9.23017 35.7416 9.34369 35.7884 9.47085C35.9693 10.0543 36.1961 10.7218 35.799 11.4189C35.3329 12.2067 34.7227 12.1159 34.1421 12.0863C34.0116 12.075 33.8851 12.0795 33.7618 12.1C33.4603 12.1272 33.1845 12.2453 32.9372 12.579L32.9372 12.579C32.9265 12.6017 32.9088 12.6108 32.8991 12.6358C32.2429 13.4917 32.4869 15.0197 33.4426 15.9756C34.3567 16.9224 35.5553 16.9247 36.1138 16.0324C36.1246 16.0165 36.1352 15.9961 36.1467 15.9779L36.1467 15.9779C36.3566 15.6396 36.3968 15.2831 36.3781 14.9244C36.3745 14.7745 36.3603 14.6269 36.3302 14.4681C36.2221 13.7619 36.0465 12.9968 36.4915 12.2089C36.8464 11.4756 37.2984 11.6141 37.6663 11.7026C37.7427 11.7299 37.8118 11.739 37.8721 11.7321C38.0194 11.7458 38.1389 11.7117 38.1823 11.5006C38.1798 11.4802 38.185 11.4756 38.1823 11.4575C38.2391 10.9942 37.7816 10.0089 37.1796 9.19612C36.5318 8.39693 35.8735 8.01092 35.6919 8.40148C35.6847 8.40602 35.6892 8.42645 35.6821 8.43099L35.6821 8.43099ZM40.1054 17.4242C39.9077 18.1735 39.3155 18.178 38.7808 17.3538C38.1761 16.4933 37.943 15.1447 38.2595 14.4091C38.5042 13.7188 39.0974 13.9005 39.5832 14.736C39.999 15.5465 40.2322 16.7158 40.1054 17.4242L40.1054 17.4242ZM40.6015 16.18C40.6442 16.432 40.6902 16.684 40.7406 16.9542C40.7608 17.07 40.7847 17.2039 40.8056 17.3197C40.8954 17.8987 40.9784 18.5163 40.9287 19.2927C40.7855 20.1328 40.5735 20.1623 40.3408 20.2486C40.2835 20.2463 40.2272 20.2804 40.1701 20.3144C40.0278 20.3826 39.8846 20.5392 39.7385 20.8912L39.7394 20.8912C39.731 20.9093 39.7235 20.9275 39.7149 20.9434C39.3014 21.8311 39.2967 23.1366 39.6843 23.8041C39.9847 24.4035 40.4449 24.1493 40.7332 23.3001C40.7378 23.2819 40.7437 23.2638 40.7482 23.2433C40.8418 22.9141 40.8868 22.6303 40.9173 22.3261C40.9296 22.1921 40.9375 22.0786 40.9441 21.9424C40.9671 21.3475 40.9631 20.7163 41.0718 19.8921C41.092 19.4675 41.1008 19.2723 41.1013 19.177C41.0148 18.1212 40.8364 17.0677 40.567 16.0256L40.566 16.0278C40.5766 16.0665 40.5841 16.1028 40.5927 16.1437C40.5966 16.1618 40.6015 16.18 40.6015 16.18L40.6015 16.18ZM35.7159 19.0702C35.4596 19.4517 35.3781 19.8377 35.3577 20.2213C35.3435 20.3848 35.3427 20.5642 35.354 20.7299C35.3674 21.5041 35.4242 22.3373 34.6413 23.4431C33.8106 24.5579 33.0763 24.6282 32.3838 24.7417C32.2315 24.7554 32.0764 24.7917 31.9212 24.8485C31.5674 24.9439 31.219 25.1277 30.8722 25.5455C30.8519 25.5682 30.8316 25.5931 30.8163 25.6091C29.9369 26.6421 29.9814 28.1179 30.8768 28.883C31.7233 29.5914 33.0302 29.3689 33.8415 28.4108C33.8592 28.3858 33.877 28.3654 33.8939 28.3426L33.8949 28.3426C34.2122 27.9521 34.3451 27.5934 34.4116 27.2324C34.4401 27.0825 34.4559 26.9282 34.4624 26.7692C34.5073 26.0495 34.4986 25.2435 35.3055 24.1446C36.0643 23.0503 36.6698 22.9844 37.193 22.8686C37.3046 22.8459 37.412 22.8209 37.5184 22.7619C37.7577 22.6642 37.9812 22.4917 38.1957 22.1148C38.2064 22.099 38.2171 22.0831 38.2293 22.0535C38.7162 21.134 38.6354 19.7491 38.0362 18.9158C37.3712 18.0575 36.3462 18.0689 35.754 18.9975C35.7415 19.027 35.7283 19.0429 35.7159 19.0702L35.7159 19.0702ZM38.4919 28.0113C37.9198 28.9058 37.1378 29.2578 36.7008 28.7628C36.1901 28.1997 36.2957 26.9147 36.9571 25.9657C37.5822 24.9984 38.4385 24.7918 38.85 25.4207C39.1807 25.9951 39.005 27.1349 38.4919 28.0113L38.4919 28.0113ZM40.1063 25.7385C39.9637 26.0882 39.8748 26.3743 39.7951 26.6648C39.7579 26.792 39.7287 26.901 39.7011 27.0123C39.5496 27.539 39.3883 28.0658 38.9014 28.9785C38.351 29.8912 38.0482 30.1386 37.7275 30.393C37.6593 30.4338 37.5832 30.4928 37.4981 30.5678C37.3152 30.7085 37.1018 30.9129 36.8446 31.2421C36.833 31.2558 36.8107 31.2852 36.7993 31.2988C36.1272 32.1094 35.7851 32.9335 36.0111 33.0698C36.1166 33.1447 36.5236 32.7656 36.972 32.2411C37.216 31.9437 37.4482 31.6394 37.6692 31.3284L37.6715 31.3239L37.6744 31.3216L37.6771 31.317L37.6795 31.3125L37.6823 31.3102C37.7171 31.2603 37.7515 31.2103 37.786 31.1604C37.8491 31.0673 37.9014 30.9878 37.951 30.9084C38.1822 30.5201 38.397 30.0978 38.9226 29.2055C39.2393 28.6038 39.4067 28.2859 39.5134 28.0657L39.5175 28.0635C39.9742 27.0122 40.3278 25.9224 40.5771 24.8145L40.5744 24.8122C40.5733 24.6533 40.3856 24.9756 40.1267 25.6863C40.1194 25.7021 40.1124 25.7203 40.1063 25.7385" id="path44" fill="currentColor" fill-rule="evenodd" stroke="none" />
      </g>
    </g>
    <g id="straw_hat_vector_illustration" clip-path="url(#clip_1)">
      <path d="M0 41.639L0 0L72 1.90735e-06L72 41.639L0 41.639Z" id="straw_hat_vector_illustration" fill="none" stroke="none" transform="matrix(0.9563048 0.2923717 -0.2923717 0.9563048 67.65991 -5)" />
      <g id="Group" clip-path="url(#clip_2)" transform="matrix(0.9563048 0.2923717 -0.2923717 0.9563048 67.65991 -5), matrix(1 0 0 -1 0 41.638844)">
        <g id="Group">
          <path d="M19.3256 28.6861C19.4427 30.5232 19.6781 32.3598 20.2056 33.48C21.6809 36.6117 28.2556 38.7669 35.0265 39.4028C41.9651 40.0533 48.7872 39.1182 51.6556 36.6304C52.8155 35.7922 53.6137 30.8917 53.6537 30.1248C61.0956 28.9474 66.7112 26.2063 69.2775 22.863C68.756 22.4392 68.2757 21.9551 68.3117 21.3157C69.7407 20.9879 70.8739 20.002 70.8087 18.4827C70.7649 17.4504 70.4402 16.4022 69.8069 15.3577C65.8558 8.83756 56.969 5.91092 49.8222 4.01632C42.8486 2.16575 35.5381 0.892648 28.2743 0.860697C28.0355 0.859573 27.4773 0.85136 27.1421 0.945804C26.5548 1.11343 26.1483 1.4448 25.7459 1.58975C25.0381 2.02997 24.6924 1.97282 24.3244 1.68555C24.1129 1.52197 23.8953 1.28375 23.5974 1.0191C20.2729 1.26508 16.9756 1.80261 13.7427 2.69928C5.44718 5.0007 2.37004 10.4115 2.64009 15.2474C2.98664 21.4409 8.91742 27.1195 19.3256 28.6861L19.3256 28.6861" id="Path" fill="#844415" fill-rule="evenodd" stroke="none" />
          <path d="M52.1915 32.8979C51.5623 36.1754 50.4847 36.6218 47.3877 37.5582C39.5572 39.3968 30.6656 38.8421 23.4412 35.3127C21.101 34.1692 20.5335 32.423 20.3321 29.8235C20.0547 26.2415 19.871 22.4313 19.7739 19.7438C24.7315 15.6518 50.5327 17.8069 53.5126 22.6595C53.208 26.0539 52.7436 30.0224 52.1915 32.8979L52.1915 32.8979" id="Path" fill="#F8CD84" fill-rule="evenodd" stroke="none" />
          <path d="M53.7868 29.2321L54.5664 18.8765C50.1975 12.7649 21.7222 11.4158 18.8114 16.418C18.9917 19.4725 19.1073 23.3126 19.3975 27.6571C13.4174 26.5369 9.05585 24.4362 6.47887 21.4841C5.02014 19.8118 4.13347 17.8668 3.84941 15.6718C2.73387 7.05094 11.3128 2.99061 22.6263 2.11265C22.8185 2.09797 23.0113 2.08459 23.2043 2.07131C23.6139 2.40139 23.8814 2.71267 24.1381 2.91213C24.506 3.19957 24.8519 3.25672 25.5604 2.81622C26.6166 2.27088 26.9978 1.91982 28.2178 1.93035C46.6401 2.08459 68.9835 9.19689 69.8203 18.3126C69.9706 19.9607 68.591 20.3126 66.9734 20.6845C66.9334 21.3883 67.3392 22.2471 67.9551 22.6921C65.5006 25.4426 60.6914 28.13 53.7868 29.2321L53.7868 29.2321" id="Path" fill="#F8CD84" fill-rule="evenodd" stroke="none" />
          <path d="M34.1247 24.7209L34.096 24.7527C33.8472 25.0355 33.6336 25.3035 33.4507 25.559C33.0637 25.2131 32.7044 24.9484 32.3712 24.7408C32.5761 24.4322 32.7856 24.1681 33.0231 23.9108C33.47 24.1967 33.82 24.4535 34.1247 24.7209L34.1247 24.7209ZM34.4193 26.5382C34.3049 26.411 34.1851 26.2814 34.06 26.1504C33.9537 26.0392 33.8486 25.9335 33.7461 25.8345C33.9637 25.5503 34.191 25.273 34.4259 25.0036C34.6567 25.2337 34.8703 25.4818 35.0951 25.7686C34.851 26.0047 34.6235 26.2647 34.4193 26.5382L34.4193 26.5382ZM29.7443 25.736C30.4361 24.2034 30.5285 23.5502 31.8823 22.3342C30.5326 22.5783 29.7543 24.3563 29.7443 25.736L29.7443 25.736ZM32.2727 28.2264C32.606 27.5095 33.0238 26.8216 33.4967 26.169C33.7308 26.4011 33.9576 26.6385 34.1778 26.8815C33.6729 27.649 33.355 28.4685 33.3504 29.0818C33.7534 28.2164 34.0686 27.6111 34.3913 27.1195C35.1124 27.9383 35.7563 28.7991 36.3163 29.6286C36.3163 29.2555 35.7942 28.1393 34.6295 26.7789C34.831 26.509 35.0445 26.2673 35.2893 26.0219C35.5029 26.3061 35.7337 26.6286 36.003 27.0078C35.9206 26.6047 35.7416 26.2022 35.4988 25.8185C35.8308 25.5046 36.2219 25.1706 36.7149 24.7501C36.2286 24.8951 35.7543 25.1859 35.3233 25.559C35.121 25.2796 34.8883 25.0129 34.6354 24.7674C35.5001 23.8075 36.4501 22.9461 37.3648 22.2038C36.9603 22.2391 35.7324 22.9681 34.3335 24.4888C33.9749 24.1787 33.5917 23.9126 33.2166 23.7084C33.597 23.324 34.0541 22.9329 34.6707 22.4087C34.044 22.5943 33.4381 23.0227 32.9179 23.5588C32.5827 23.4058 32.2614 23.3081 31.9788 23.2815C32.264 23.4458 32.5189 23.5967 32.7503 23.7384C32.5116 24.0045 32.2934 24.2912 32.1038 24.5845C31.5929 24.3011 31.1472 24.1495 30.7568 24.0337C31.1699 24.2712 31.5684 24.5373 31.9541 24.8273C31.5537 25.5071 31.3096 26.203 31.3056 26.7396C31.6461 26.008 31.9242 25.4619 32.1969 25.0142C32.5494 25.2922 32.89 25.5897 33.218 25.8995C32.5987 26.8548 32.3985 27.6117 32.2727 28.2264L32.2727 28.2264" id="path20" fill="#E19155" fill-rule="evenodd" stroke="none" />
          <path d="M21.8466 18.6995C22.0994 18.9111 22.3462 19.1294 22.5856 19.3569C21.9663 20.312 21.7661 21.0683 21.6404 21.6836C21.9736 20.966 22.3921 20.2788 22.8644 19.627C23.9559 20.7072 24.9011 21.9277 25.6848 23.0852C25.6848 22.6561 24.9929 21.2433 23.4277 19.607C23.3213 19.4964 23.2169 19.39 23.1145 19.2917C23.332 19.007 23.5595 18.7302 23.7942 18.4615C24.3011 18.9671 24.7222 19.5537 25.3707 20.465C25.2077 19.6695 24.671 18.8752 24.0037 18.2246L24.073 18.1474C23.8435 18.1901 23.6187 18.2354 23.4005 18.2819C23.1789 18.5385 22.9861 18.7835 22.8185 19.0162C22.6309 18.8486 22.4493 18.6995 22.2743 18.5666C22.128 18.6105 21.9856 18.6545 21.8466 18.6995L21.8466 18.6995ZM20.7849 20.5315C21.1415 19.7654 21.4295 19.2024 21.7149 18.7436C21.5625 18.7953 21.4149 18.8499 21.2738 18.9059C20.9692 19.4913 20.789 20.07 20.7849 20.5315L20.7849 20.5315" id="path22" fill="#E19155" fill-rule="evenodd" stroke="none" />
          <path d="M50.3823 21.7494C50.3066 21.8314 50.232 21.9158 50.1548 22.0016C49.9074 22.2843 49.6946 22.5531 49.511 22.8078C49.2129 22.5424 48.9323 22.3243 48.6676 22.1433C48.9362 21.7647 49.2197 21.4489 49.5708 21.1115C49.8835 21.3291 50.1455 21.5346 50.3823 21.7494L50.3823 21.7494ZM48.1912 20.2569C48.625 20.5069 48.9894 20.727 49.3034 20.9327C48.9707 21.2426 48.6649 21.5998 48.4054 21.9742C47.9837 21.7156 47.6032 21.5486 47.2599 21.4262C47.5473 20.9718 47.836 20.6175 48.1912 20.2569L48.1912 20.2569ZM48.3324 25.4759C48.6662 24.7575 49.0839 24.071 49.5562 23.4184C50.6472 24.4987 51.5929 25.7194 52.3766 26.8767C52.3766 26.4477 51.6847 25.0355 50.1203 23.3991C50.0137 23.2875 49.9087 23.183 49.8064 23.0832C50.083 22.7226 50.3757 22.3734 50.6777 22.0361C51.15 22.5237 51.5598 23.0958 52.1743 23.9593C52.0186 23.1982 51.5198 22.4366 50.8918 21.802C51.1234 21.5519 51.3602 21.3098 51.5996 21.075C51.4826 21.0125 51.3627 20.95 51.2404 20.8893C51.0328 21.0797 50.8172 21.2905 50.5965 21.5206C50.3384 21.2912 50.067 21.0823 49.793 20.9027C49.946 20.7643 50.1109 20.6186 50.2905 20.463C50.2081 20.4291 50.1256 20.396 50.0405 20.3619C49.8634 20.4723 49.6919 20.598 49.5243 20.7371C49.0599 20.4664 48.6009 20.2887 48.2098 20.2396C48.3335 20.115 48.4651 19.9893 48.6077 19.859C48.4958 19.8239 48.3828 19.7879 48.2683 19.7533C47.7562 20.195 47.3039 20.7537 46.9619 21.3271L46.8156 21.2826L46.9434 21.3563C46.5389 22.0408 46.2915 22.742 46.2874 23.282C46.6388 22.5283 46.922 21.9716 47.2041 21.516C47.5552 21.7382 47.8972 21.9816 48.2284 22.2411C47.7682 22.9742 47.4808 23.7417 47.4782 24.323C47.8599 23.5002 48.1646 22.913 48.4706 22.4353C48.7472 22.6621 49.0161 22.9009 49.2782 23.1484C48.6595 24.1035 48.4587 24.8606 48.3324 25.4759L48.3324 25.4759" id="path24" fill="#E19155" fill-rule="evenodd" stroke="none" />
          <path d="M59.4436 19.4446C62.0856 19.1904 62.6496 19.3768 64.882 20.1531C63.5411 18.9006 60.6382 18.7541 59.4436 19.4446L59.4436 19.4446ZM55.7451 22.8272C56.6683 22.6182 57.6289 22.5311 58.5947 22.5311C57.4718 23.5794 56.2161 24.4748 55.0292 25.2124C55.4576 25.2291 56.8971 24.5932 58.5932 23.0931C58.8077 22.9036 59.0005 22.72 59.1747 22.541C59.6217 22.5563 60.0688 22.5896 60.5105 22.6362C59.7334 23.6373 59.0803 24.0723 57.6608 25.001C58.8661 24.802 60.106 23.7557 60.8538 22.6748C61.8168 22.7919 62.7534 22.9714 63.6249 23.1769C63.4027 22.9369 62.5007 22.5484 61.0852 22.3135C61.3313 21.8926 61.4936 21.48 61.5415 21.1249C61.2581 21.5745 61.0133 21.9477 60.7845 22.267C60.4226 22.2144 60.0288 22.1733 59.6084 22.1466L59.5419 22.142C59.9637 21.6537 60.2471 21.2108 60.452 20.8096C61.5562 20.8502 62.3011 21.1056 63.7806 21.6212C63.0221 20.9114 61.7623 20.5563 60.5956 20.5062C60.6941 20.2815 60.7711 20.0713 60.8376 19.8743C60.7034 20.0878 60.5609 20.2968 60.412 20.5017C59.5873 20.4889 58.8262 20.6301 58.3433 20.9088C59.0975 20.8369 59.683 20.8009 60.1857 20.8037C59.8266 21.2659 59.4328 21.7063 59.0152 22.124C57.3707 22.1061 56.4394 22.4872 55.7451 22.8272L55.7451 22.8272" id="path26" fill="#E19155" fill-rule="evenodd" stroke="none" />
          <path d="M12.1801 18.7568C12.5767 18.689 13.0149 18.6319 13.4913 18.5946C13.005 18.1169 12.6545 17.6793 12.3931 17.2761C12.0125 17.316 11.658 17.388 11.2736 17.493C11.6128 18.0145 11.9002 18.4189 12.1801 18.7568L12.1801 18.7568ZM13.8971 15.8753C11.2556 15.6224 10.6908 15.8073 8.45852 16.5843C9.79952 15.3324 12.7024 15.1862 13.8971 15.8753L13.8971 15.8753ZM17.5955 19.2584C16.5983 19.0336 15.5553 18.9498 14.513 18.9644C15.4763 19.7905 16.5079 20.5108 17.493 21.1229C17.064 21.1395 15.6259 20.5037 13.9296 19.0029L13.907 18.9831C13.4301 19.007 12.9558 19.0495 12.4875 19.1055C13.0935 19.7493 13.7367 20.1755 14.8615 20.9114C13.8704 20.7485 12.8567 20.0121 12.1123 19.1546C11.5802 19.2277 11.0581 19.3209 10.5531 19.4234C11.5456 20.8629 12.1576 21.2725 13.8212 22.3615C12.4077 22.128 10.9477 20.7311 10.2884 19.478C10.0942 19.5203 9.9032 19.563 9.71572 19.6083C9.79418 19.5218 9.95984 19.4181 10.2032 19.309C10.0656 19.0176 9.97447 18.7368 9.9405 18.4856C10.1108 18.7569 10.2678 18.9989 10.4155 19.2198C10.7739 19.0801 11.2543 18.9379 11.8396 18.8208C11.5123 18.3911 11.2582 17.9453 11.1105 17.5382C10.6682 17.6661 10.178 17.8363 9.55935 18.0517C9.94387 17.6926 10.4567 17.4253 11.02 17.2401C11.0035 17.1711 10.9909 17.1019 10.9815 17.0355L11.0959 17.2162C11.4558 17.1045 11.8343 17.0273 12.2128 16.9821C11.9567 16.5351 11.8057 16.1372 11.686 15.7847C11.9387 16.1893 12.2207 16.5777 12.5254 16.9502C13.4999 16.8784 14.4364 17.0168 14.9972 17.34C14.044 17.2496 13.3616 17.215 12.7729 17.2457C13.1726 17.7084 13.6057 18.1474 14.0587 18.5626C15.872 18.4961 16.8651 18.9006 17.5955 19.2584L17.5955 19.2584" id="path28" fill="#E19155" fill-rule="evenodd" stroke="none" />
          <path d="M37.4632 7.66025C37.1452 7.58161 36.7874 7.5099 36.3955 7.4487C36.4641 7.3263 36.5318 7.19854 36.6005 7.06828C36.7793 6.72239 36.9258 6.40312 37.0441 6.10246C37.3779 6.16766 37.7106 6.2594 38.0857 6.37904C37.9156 6.84738 37.7212 7.23978 37.4632 7.66025L37.4632 7.66025ZM38.5301 4.72956C38.4157 5.27086 38.304 5.71118 38.1816 6.09582C37.8569 5.96937 37.5111 5.87088 37.1572 5.80174C37.3222 5.33335 37.4205 4.92104 37.4764 4.55115C37.8438 4.5831 38.179 4.64159 38.5301 4.72956L38.5301 4.72956ZM39.3269 9.34977C40.6853 7.5698 40.6427 6.87932 41.26 4.86249C41.5528 6.67429 40.5655 8.74182 39.3269 9.34977L39.3269 9.34977ZM31.3368 7.96236C32.7597 7.65361 34.2723 7.63487 35.7429 7.77601C35.2129 8.69254 34.6229 9.55081 34.0375 10.3264C34.3888 10.2066 35.2721 9.35641 36.1814 7.82399C36.5452 7.86646 36.907 7.91697 37.261 7.97817C37.0294 8.3294 36.7541 8.71257 36.4161 9.18349C36.8618 8.92154 37.261 8.51575 37.5935 8.03678C38.1522 8.13787 38.6938 8.25628 39.2126 8.38396C39.0568 8.21234 38.562 7.96236 37.7839 7.74405C38.0272 7.34486 38.2268 6.91116 38.3786 6.47494C38.6791 6.57591 39.0064 6.69427 39.3843 6.82876C39.1275 6.58526 38.8122 6.38169 38.4635 6.21806C38.6179 5.70849 38.703 5.20848 38.7057 4.77479C39.2113 4.91171 39.7647 5.10858 40.4977 5.37076C40.0387 4.93431 39.3896 4.62814 38.6899 4.44196C38.6791 4.34622 38.6646 4.25724 38.6445 4.17196L38.5953 4.41692C38.2413 4.32895 37.8756 4.27174 37.5163 4.24255C37.5523 3.8726 37.5484 3.54804 37.5376 3.25818C37.4738 3.58404 37.394 3.90731 37.3009 4.22916C36.4156 4.18664 35.5827 4.31972 35.0659 4.61246C35.9765 4.53528 36.6396 4.50591 37.2104 4.53258C37.08 4.93966 36.9311 5.34156 36.7648 5.73796C35.6738 5.59154 34.5803 5.71265 33.9516 6.06787C35.1629 5.96409 35.9372 5.94806 36.635 6.03721C36.4294 6.49886 36.2026 6.94987 35.9605 7.39025C35.7205 7.36089 35.4689 7.33568 35.2063 7.31695C33.1846 7.16935 32.1131 7.58982 31.3368 7.96236L31.3368 7.96236" id="path30" fill="#E19155" fill-rule="evenodd" stroke="none" />
          <path d="M15.7909 7.21198C16.4207 6.88061 16.9149 6.66906 17.4091 6.52292C17.1983 6.97247 17.0041 7.52315 16.8464 8.21233C16.7374 8.25091 16.6256 8.29227 16.5132 8.33485C16.0756 8.50235 15.6957 8.67803 15.3651 8.85358C15.441 8.28805 15.5634 7.79603 15.7909 7.21198L15.7909 7.21198ZM13.319 10.5379C13.8458 10.1386 14.4138 9.7861 15.0072 9.47363C15.0059 9.9445 15.0723 10.3968 15.2254 10.7932C15.2533 10.2105 15.2759 9.73699 15.3145 9.31651C15.7815 9.08381 16.2625 8.87485 16.7488 8.68736C16.3423 10.8519 16.5205 12.3685 16.748 12.7222C16.7806 11.3972 16.9056 9.9445 17.2044 8.51834C18.3457 8.11125 19.5065 7.81589 20.5927 7.59775C20.2482 7.45274 19.0156 7.50314 17.3081 8.05405C17.4404 7.50055 17.6001 6.95391 17.7929 6.42185C18.4176 6.27796 19.0954 6.21158 20.0865 6.11827C19.448 5.90548 18.6817 5.9161 17.9267 6.06787C18.0697 5.70601 18.2294 5.35338 18.4063 5.0115C18.1509 5.30815 17.8702 5.66068 17.6034 6.14217C17.0114 6.29399 16.4406 6.5281 15.9585 6.80614C16.1248 6.42426 16.3349 5.99604 16.5996 5.48511C16.1906 5.80439 15.8008 6.39508 15.5095 7.09746C15.23 7.29968 15.0019 7.51781 14.8462 7.73612C15.0352 7.62711 15.2127 7.52716 15.3805 7.43418C15.1995 7.94621 15.073 8.4996 15.0265 9.04506C14.175 9.55339 13.6888 10.0722 13.3197 10.5205C13.4128 9.05445 13.4048 8.31488 14.2209 6.59999C13.1341 7.45144 12.5946 9.67709 13.2551 11.3893C13.2831 11.0766 13.3023 10.796 13.319 10.5379L13.319 10.5379" id="path32" fill="#E19155" fill-rule="evenodd" stroke="none" />
          <path d="M4.80526 4.39404C4.30902 7.42754 4.73878 13.3037 5.37739 15.8964C3.67711 15.2872 1.12145 5.32284 4.80526 4.39404L4.80526 4.39404" id="Path" fill="#844415" fill-rule="evenodd" stroke="none" />
          <path d="M4.15473 5.49045C3.81549 8.20975 4.63302 13.0017 5.54827 15.6158C5.92542 16.6935 5.50439 16.8383 4.85516 15.7968C3.81746 14.1325 2.74786 6.66378 4.15473 5.49045L4.15473 5.49045" id="Path" fill="#F8CD84" fill-rule="evenodd" stroke="none" />
          <path d="M16.1419 0.505593C14.5568 2.25896 11.9919 6.34855 11.3453 8.39863C10.1992 7.12137 12.7196 -0.818193 16.1419 0.505593L16.1419 0.505593" id="Path" fill="#844415" fill-rule="evenodd" stroke="none" />
          <path d="M14.9501 0.999074C13.3848 2.60079 11.964 6.12491 11.5775 8.28417C11.4192 9.16892 11.034 9.07848 11.0401 8.11397C11.05 6.56798 13.5199 1.18802 14.9501 0.999074L14.9501 0.999074" id="Path" fill="#F8CD84" fill-rule="evenodd" stroke="none" />
          <path d="M38.6977 0.977754C36.4308 1.23324 31.7992 2.90678 29.9819 4.03488C29.7145 2.44931 36.476 -1.93964 38.6977 0.977754L38.6977 0.977754" id="Path" fill="#844415" fill-rule="evenodd" stroke="none" />
          <path d="M37.4632 0.602681C35.3465 1.02039 31.9615 2.76325 30.2339 4.0935C29.5216 4.64159 29.31 4.36366 29.9273 3.62117C30.9145 2.43317 36.2371 -0.159675 37.4632 0.60268L37.4632 0.60268" id="Path" fill="#F8CD84" fill-rule="evenodd" stroke="none" />
          <path d="M64.9963 9.47076C62.5485 9.01052 57.7819 9.13292 55.7609 9.61448C56.0562 7.99965 63.9693 5.93484 64.9963 9.47076L64.9963 9.47076" id="Path" fill="#844415" fill-rule="evenodd" stroke="none" />
          <path d="M63.9454 8.72309C61.8034 8.4505 58.0411 9.03444 55.9819 9.74898C55.1331 10.0443 55.0215 9.71309 55.8408 9.20217C57.1527 8.38948 63.0234 7.61372 63.9454 8.72309L63.9454 8.72309" id="Path" fill="#F8CD84" fill-rule="evenodd" stroke="none" />
          <path d="M55.6706 4.72006C56.6217 6.59465 58.294 9.21544 59.9942 10.7613C58.5921 11.32 53.4968 7.35694 55.6706 4.72006L55.6706 4.72006" id="Path" fill="#844415" fill-rule="evenodd" stroke="none" />
          <path d="M55.6598 6.00926C56.6605 7.92102 58.2142 9.22349 59.9784 10.5032C60.7073 11.0301 60.4985 11.312 59.6112 10.9316C58.1929 10.321 55.2768 7.40076 55.6598 6.00926L55.6598 6.00926" id="Path" fill="#F8CD84" fill-rule="evenodd" stroke="none" />
          <path d="M0 12.5081C2.31153 13.446 5.3015 13.6974 7.36958 13.45C6.82217 14.8707 0.447693 15.9203 0 12.5081L0 12.5081" id="Path" fill="#844415" fill-rule="evenodd" stroke="none" />
          <path d="M0.937911 13.3929C3.01995 13.9595 5.03077 13.7081 7.17007 13.285C8.0514 13.1108 8.11721 13.4553 7.23387 13.8452C5.8217 14.4704 1.69684 14.6193 0.937911 13.3929L0.937911 13.3929" id="Path" fill="#F8CD84" fill-rule="evenodd" stroke="none" />
          <path d="M10.897 26.9631C13.3163 26.574 16.2592 26.1929 18.1628 25.414C18.0272 27.1235 12.2945 30.3556 10.897 26.9631L10.897 26.9631" id="Path" fill="#844415" fill-rule="evenodd" stroke="none" />
          <path d="M12.0751 27.488C14.2276 27.3343 16.0416 26.4318 17.9201 25.3243C18.6944 24.8679 18.8706 25.1719 18.1662 25.8317C17.0399 26.8881 13.1972 28.3953 12.0751 27.488L12.0751 27.488" id="Path" fill="#F8CD84" fill-rule="evenodd" stroke="none" />
          <path d="M71.9515 18.2061C69.71 19.1959 67.0346 20.4784 65.0124 20.8614C66.058 22.2218 72.6247 21.8114 71.9515 18.2061L71.9515 18.2061" id="Path" fill="#844415" fill-rule="evenodd" stroke="none" />
          <path d="M71.2491 19.2862C69.3599 20.3293 67.3458 20.5595 65.1667 20.6546C64.27 20.6932 64.2873 21.0439 65.2385 21.2141C66.7579 21.4868 70.8022 20.6587 71.2491 19.2862L71.2491 19.2862" id="Path" fill="#F8CD84" fill-rule="evenodd" stroke="none" />
          <path d="M52.6986 36.4992C50.2852 36.9236 45.5837 37.7199 43.5297 37.6082C44.2188 39.1793 52.491 40.1624 52.6986 36.4992L52.6986 36.4992" id="Path" fill="#844415" fill-rule="evenodd" stroke="none" />
          <path d="M51.7592 37.3813C49.6746 37.9421 45.8684 37.8735 43.7306 37.4438C42.8486 37.2669 42.782 37.6107 43.664 38.0039C45.0754 38.6326 50.9957 38.6058 51.7592 37.3813L51.7592 37.3813" id="Path" fill="#F8CD84" fill-rule="evenodd" stroke="none" />
          <path d="M22.9841 35.701C25.3987 36.1167 30.1036 36.8951 32.1576 36.7754C31.4744 38.3492 23.2063 39.3635 22.9841 35.701L22.9841 35.701" id="Path" fill="#844415" fill-rule="evenodd" stroke="none" />
          <path d="M23.928 36.5797C26.014 37.1319 29.8208 37.05 31.9567 36.6124C32.8374 36.4321 32.9053 36.776 32.0247 37.1718C30.6164 37.8057 24.6957 37.8016 23.928 36.5797L23.928 36.5797" id="Path" fill="#F8CD84" fill-rule="evenodd" stroke="none" />
          <path d="M19.7467 19.1693C19.7121 18.0732 19.6941 17.1657 19.6914 16.5298C24.0737 12.1049 51.3415 14.2868 53.776 19.3581C53.7243 20.2031 53.6563 21.1249 53.5738 22.09C50.8879 17.1577 24.6736 15.0199 19.7467 19.1693L19.7467 19.1693" id="Path" fill="#EF402F" fill-rule="evenodd" stroke="none" />
          <path d="M24.9139 35.4317C22.6722 32.8156 25.6069 32.0518 29.6712 32.1051C34.9302 32.1736 41.8215 33.8712 42.6303 34.0587C44.554 34.5064 46.7239 34.8104 48.8777 34.8475C46.3899 35.2587 42.6955 34.5829 41.5741 34.3746C40.668 34.2197 34.1931 32.8613 29.4856 32.8215C26.2009 32.7929 23.8676 33.3329 24.9139 35.4317L24.9139 35.4317" id="Path" fill="#844415" fill-rule="evenodd" stroke="none" />
          <path d="M40.9701 36.152C39.0983 34.6215 36.5984 32.9758 34.6242 32.29C35.8195 31.1918 42.0409 32.888 40.9701 36.152L40.9701 36.152" id="Path" fill="#844415" fill-rule="evenodd" stroke="none" />
          <path d="M40.4751 34.9621C38.8042 33.5958 36.8645 33.0071 34.7392 32.5215C33.8631 32.3214 33.9431 31.9801 34.9089 31.9834C36.4528 31.9887 40.2808 33.532 40.4751 34.9621L40.4751 34.9621" id="Path" fill="#F8CD84" fill-rule="evenodd" stroke="none" />
          <path d="M31.6042 41.6391C30.5632 39.4208 29.3865 36.6962 28.1134 35.0804C29.7943 34.7405 34.4805 39.3609 31.6042 41.6391L31.6042 41.6391" id="Path" fill="#844415" fill-rule="evenodd" stroke="none" />
          <path d="M31.7845 40.362C31.0435 38.3352 29.6752 36.8399 28.0941 35.3386C27.4422 34.7199 27.6857 34.4671 28.5144 34.9627C29.8402 35.7543 32.3473 39.033 31.7845 40.362L31.7845 40.362" id="Path" fill="#F8CD84" fill-rule="evenodd" stroke="none" />
          <path d="M48.9655 28.1785C36.236 24.8738 39.3523 29.9472 40.3501 30.9165C39.673 29.1165 40.0174 28.2702 40.8077 27.8952C42.2897 27.1941 46.8981 28.0728 48.9655 28.1785L48.9655 28.1785" id="Path" fill="#844415" fill-rule="evenodd" stroke="none" />
        </g>
      </g>
    </g>
  </g>
</svg>